<?xml version="1.0" encoding="UTF-8" standalone="no"?>
<!-- Created with Inkscape (http://www.inkscape.org/) -->

<svg
   width="500.00003"
   height="320"
   viewBox="0 0 132.29167 84.666667"
   version="1.1"
   id="svg5"
   xml:space="preserve"
   xmlns="http://www.w3.org/2000/svg"
   xmlns:svg="http://www.w3.org/2000/svg"><defs
     id="defs2" /><rect
     style="fill:#ffffff;stroke-width:0.264583;stroke-linecap:square;paint-order:stroke fill markers"
     id="rect1758"
     width="132.29167"
     height="84.666664"
     x="0"
     y="3.5527137e-15" /><g
     id="layer1"
     transform="translate(-26.029367,-90.170029)"><rect
       style="fill:#f2f2f2;fill-opacity:1;stroke:#f2f2f2;stroke-width:0.264583;stroke-linecap:square;stroke-opacity:1;paint-order:stroke fill markers"
       id="rect3036"
       width="111.08105"
       height="49.403057"
       x="38.295692"
       y="115.42565" /><path
       style="fill:none;stroke:#f8941c;stroke-width:0.264583px;stroke-linecap:butt;stroke-linejoin:miter;stroke-opacity:1"
       d="m 38.765958,137.81946 0.842312,1.64393 h 4.154559 l 28.981778,-23.5053 0.423884,1.86749 0.56143,0.47171 0.667755,1.35345 5.464572,-1.28581 2.66388,0.042 0.230005,9.17145 0.845823,2.1983 0.441002,1.89199 0.222509,0.70309 0.792689,0.93444 0.284057,1.72937 0.898401,1.12794 0.697558,0.25435 1.106408,2.33614 1.05751,0.93031 1.873835,2.60245 0.443365,-0.0531 0.733711,-1.82458 1.053618,3.51418 8.421581,1.31438 2.76241,1.14198 0.31469,1.17061 0.75545,-0.94856 0.52859,0.83894 0.66771,0.0165 0.43686,-1.67741 0.54467,-1.22783 0.54911,2.08456 0.63834,-0.99047 0.38619,1.47298 0.59461,0.52156 0.55525,-1.24675 0.33931,0.19998 0.59526,-0.11442 0.74317,-1.29087 0.56509,0.73701 1.10586,-1.51968 0.48639,1.57167 0.91924,-2.36377 0.62894,-0.17573 0.56709,1.68574 0.66776,-0.45003 0.42052,-1.28132 0.58266,3.23381 0.59639,0.96584 0.54303,-0.39197 0.4434,0.038 0.54835,3.77054 0.77746,-9.60333 17.64027,-4.96933 1.48775,2.41537 1.95078,8.29778 2.05806,5.87571 3.82346,10.00946 1.16187,-7.9e-4 0.33644,2.07517"
       id="path1645" /><path
       id="path2568"
       style="fill:#b3b3b3;fill-opacity:1;stroke:none;stroke-width:0.264583;stroke-linecap:square;paint-order:stroke fill markers"
       d="m 144.47646,152.0886 c -0.38314,-0.0446 -0.72778,0.22782 -0.77235,0.61095 l -0.69995,6.01851 c -0.0445,0.38313 0.22833,0.72784 0.61146,0.7724 l 3.69219,0.4294 1.57992,1.99577 1.99577,-1.57991 3.6922,0.4294 c 0.38315,0.0446 0.72785,-0.22832 0.77241,-0.61146 l 0.69995,-6.01849 c 0.0446,-0.38315 -0.22838,-0.72734 -0.61152,-0.7719 z" /><path
       id="rect1699"
       style="fill:#f8941c;fill-opacity:1;stroke:none;stroke-width:0.264583;stroke-linecap:square;paint-order:stroke fill markers"
       d="m 143.38505,152.69817 c -0.38573,0 -0.6966,0.31036 -0.6966,0.69608 v 6.05907 c 0,0.38571 0.31087,0.69659 0.6966,0.6966 l 3.71708,-1e-5 1.79989,1.79989 1.79989,-1.79989 3.71709,1e-5 c 0.38572,0 0.6966,-0.31088 0.6966,-0.6966 v -6.05906 c 0,-0.38573 -0.31088,-0.69609 -0.6966,-0.69609 z" /><g
       aria-label="220"
       id="text3092"
       style="font-size:3.52778px;line-height:1.25;letter-spacing:0px;word-spacing:0px;fill:#4d4d4d;stroke-width:0.264583"><path
         d="m 31.405238,117.62698 v -0.21876 q 0.08785,-0.20154 0.213596,-0.35485 0.127469,-0.15502 0.266995,-0.27905 0.139527,-0.12574 0.275608,-0.23254 0.137804,-0.1068 0.248047,-0.2136 0.110243,-0.1068 0.177423,-0.22393 0.0689,-0.11713 0.0689,-0.26527 0,-0.19982 -0.117134,-0.31006 -0.117133,-0.11024 -0.325561,-0.11024 -0.198094,0 -0.327285,0.10852 -0.127468,0.10679 -0.149861,0.30144 l -0.316949,-0.0293 q 0.03445,-0.29111 0.246324,-0.46337 0.213596,-0.17225 0.547771,-0.17225 0.366902,0 0.563273,0.17398 0.198093,0.17225 0.198093,0.49092 0,0.14125 -0.06546,0.28078 -0.06373,0.13952 -0.191203,0.27905 -0.127468,0.13953 -0.487481,0.43236 -0.198093,0.16192 -0.315226,0.29283 -0.117134,0.1292 -0.16881,0.24977 h 1.266073 v 0.26355 z"
         id="path4090" /><path
         d="m 33.367221,117.62698 v -0.21876 q 0.08785,-0.20154 0.213596,-0.35485 0.127469,-0.15502 0.266995,-0.27905 0.139527,-0.12574 0.275608,-0.23254 0.137804,-0.1068 0.248047,-0.2136 0.110243,-0.1068 0.177423,-0.22393 0.0689,-0.11713 0.0689,-0.26527 0,-0.19982 -0.117133,-0.31006 -0.117134,-0.11024 -0.325562,-0.11024 -0.198093,0 -0.327285,0.10852 -0.127468,0.10679 -0.149861,0.30144 L 33.381,115.79934 q 0.03445,-0.29111 0.246324,-0.46337 0.213596,-0.17225 0.547771,-0.17225 0.366903,0 0.563273,0.17398 0.198093,0.17225 0.198093,0.49092 0,0.14125 -0.06546,0.28078 -0.06374,0.13952 -0.191203,0.27905 -0.127469,0.13953 -0.487482,0.43236 -0.198093,0.16192 -0.315226,0.29283 -0.117133,0.1292 -0.16881,0.24977 h 1.266073 v 0.26355 z"
         id="path4092" /><path
         d="m 36.975961,116.41259 q 0,0.60806 -0.215318,0.92845 -0.213596,0.32039 -0.632176,0.32039 -0.418579,0 -0.62873,-0.31867 -0.210151,-0.31867 -0.210151,-0.93017 0,-0.62529 0.203261,-0.93707 0.204983,-0.31178 0.645956,-0.31178 0.428914,0 0.632175,0.31523 0.204983,0.31522 0.204983,0.93362 z m -0.315226,0 q 0,-0.52538 -0.122301,-0.76137 -0.120579,-0.23599 -0.399631,-0.23599 -0.285944,0 -0.41169,0.23255 -0.124023,0.23254 -0.124023,0.76481 0,0.51676 0.125746,0.7562 0.127469,0.23943 0.403076,0.23943 0.273886,0 0.401354,-0.2446 0.127469,-0.2446 0.127469,-0.75103 z"
         id="path4094" /></g><g
       aria-label="210"
       id="text3146"
       style="font-size:3.52778px;line-height:1.25;letter-spacing:0px;word-spacing:0px;fill:#4d4d4d;stroke-width:0.264583"><path
         d="m 31.405238,125.03529 v -0.21876 q 0.08785,-0.20154 0.213596,-0.35485 0.127469,-0.15502 0.266995,-0.27905 0.139527,-0.12574 0.275608,-0.23254 0.137804,-0.1068 0.248047,-0.2136 0.110243,-0.1068 0.177423,-0.22393 0.0689,-0.11713 0.0689,-0.26527 0,-0.19982 -0.117134,-0.31006 -0.117133,-0.11024 -0.325561,-0.11024 -0.198094,0 -0.327285,0.10852 -0.127468,0.10679 -0.149861,0.30144 l -0.316949,-0.0293 q 0.03445,-0.29111 0.246324,-0.46337 0.213596,-0.17225 0.547771,-0.17225 0.366902,0 0.563273,0.17398 0.198093,0.17225 0.198093,0.49092 0,0.14125 -0.06546,0.28078 -0.06373,0.13952 -0.191203,0.27905 -0.127468,0.13953 -0.487481,0.43236 -0.198093,0.16192 -0.315226,0.29283 -0.117134,0.1292 -0.16881,0.24977 h 1.266073 v 0.26355 z"
         id="path4097" /><path
         d="m 33.458516,125.03529 v -0.26355 h 0.618395 v -1.86724 l -0.54777,0.39102 v -0.29283 l 0.573609,-0.39447 h 0.285943 v 2.16352 h 0.590834 v 0.26355 z"
         id="path4099" /><path
         d="m 36.975961,123.8209 q 0,0.60806 -0.215318,0.92845 -0.213596,0.32039 -0.632176,0.32039 -0.418579,0 -0.62873,-0.31867 -0.210151,-0.31867 -0.210151,-0.93017 0,-0.62529 0.203261,-0.93707 0.204983,-0.31178 0.645956,-0.31178 0.428914,0 0.632175,0.31523 0.204983,0.31522 0.204983,0.93362 z m -0.315226,0 q 0,-0.52538 -0.122301,-0.76137 -0.120579,-0.23599 -0.399631,-0.23599 -0.285944,0 -0.41169,0.23254 -0.124023,0.23255 -0.124023,0.76482 0,0.51676 0.125746,0.7562 0.127469,0.23943 0.403076,0.23943 0.273886,0 0.401354,-0.2446 0.127469,-0.2446 0.127469,-0.75103 z"
         id="path4101" /></g><g
       aria-label="200"
       id="text3150"
       style="font-size:3.52778px;line-height:1.25;letter-spacing:0px;word-spacing:0px;fill:#4d4d4d;stroke-width:0.264583"><path
         d="M 31.405238,132.97276 V 132.754 q 0.08785,-0.20154 0.213596,-0.35485 0.127469,-0.15503 0.266995,-0.27905 0.139527,-0.12574 0.275608,-0.23254 0.137804,-0.1068 0.248047,-0.2136 0.110243,-0.1068 0.177423,-0.22393 0.0689,-0.11713 0.0689,-0.26527 0,-0.19982 -0.117134,-0.31006 -0.117133,-0.11024 -0.325561,-0.11024 -0.198094,0 -0.327285,0.10852 -0.127468,0.10679 -0.149861,0.30144 l -0.316949,-0.0293 q 0.03445,-0.29111 0.246324,-0.46337 0.213596,-0.17225 0.547771,-0.17225 0.366902,0 0.563273,0.17398 0.198093,0.17225 0.198093,0.49092 0,0.14125 -0.06546,0.28078 -0.06373,0.13952 -0.191203,0.27905 -0.127468,0.13953 -0.487481,0.43236 -0.198093,0.16192 -0.315226,0.29283 -0.117134,0.12919 -0.16881,0.24977 h 1.266073 v 0.26355 z"
         id="path4104" /><path
         d="m 35.013978,131.75837 q 0,0.60806 -0.215319,0.92845 -0.213596,0.32039 -0.632175,0.32039 -0.418579,0 -0.62873,-0.31867 -0.210151,-0.31867 -0.210151,-0.93017 0,-0.62529 0.203261,-0.93707 0.204983,-0.31178 0.645955,-0.31178 0.428915,0 0.632176,0.31522 0.204983,0.31523 0.204983,0.93363 z m -0.315226,0 q 0,-0.52538 -0.122301,-0.76137 -0.120579,-0.23599 -0.399632,-0.23599 -0.285943,0 -0.411689,0.23254 -0.124023,0.23255 -0.124023,0.76482 0,0.51676 0.125746,0.7562 0.127468,0.23943 0.403076,0.23943 0.273885,0 0.401354,-0.2446 0.127469,-0.2446 0.127469,-0.75103 z"
         id="path4106" /><path
         d="m 36.975961,131.75837 q 0,0.60806 -0.215318,0.92845 -0.213596,0.32039 -0.632176,0.32039 -0.418579,0 -0.62873,-0.31867 -0.210151,-0.31867 -0.210151,-0.93017 0,-0.62529 0.203261,-0.93707 0.204983,-0.31178 0.645956,-0.31178 0.428914,0 0.632175,0.31522 0.204983,0.31523 0.204983,0.93363 z m -0.315226,0 q 0,-0.52538 -0.122301,-0.76137 -0.120579,-0.23599 -0.399631,-0.23599 -0.285944,0 -0.41169,0.23254 -0.124023,0.23255 -0.124023,0.76482 0,0.51676 0.125746,0.7562 0.127469,0.23943 0.403076,0.23943 0.273886,0 0.401354,-0.2446 0.127469,-0.2446 0.127469,-0.75103 z"
         id="path4108" /></g><g
       aria-label="190"
       id="text3154"
       style="font-size:3.52778px;line-height:1.25;letter-spacing:0px;word-spacing:0px;fill:#4d4d4d;stroke-width:0.264583"><path
         d="m 31.496533,140.91023 v -0.26355 h 0.618395 v -1.86724 l -0.54777,0.39102 v -0.29284 l 0.573609,-0.39446 h 0.285943 v 2.16352 h 0.590834 v 0.26355 z"
         id="path4111" /><path
         d="m 34.984695,139.6476 q 0,0.62529 -0.229099,0.96119 -0.227377,0.33589 -0.649401,0.33589 -0.284221,0 -0.456476,-0.11885 -0.170532,-0.12058 -0.244602,-0.38758 l 0.296279,-0.0465 q 0.09302,0.30316 0.409966,0.30316 0.266996,0 0.413412,-0.24804 0.146417,-0.24805 0.153307,-0.70797 -0.0689,0.15503 -0.235989,0.24977 -0.167087,0.093 -0.366903,0.093 -0.327284,0 -0.523655,-0.22393 -0.19637,-0.22394 -0.19637,-0.59428 0,-0.38069 0.213596,-0.59773 0.213596,-0.21876 0.594279,-0.21876 0.404799,0 0.613227,0.29972 0.208429,0.29972 0.208429,0.90089 z m -0.33762,-0.29972 q 0,-0.29283 -0.134359,-0.47026 -0.134358,-0.17914 -0.360012,-0.17914 -0.223932,0 -0.353123,0.15331 -0.129191,0.15158 -0.129191,0.41169 0,0.26527 0.129191,0.4203 0.129191,0.1533 0.349678,0.1533 0.134358,0 0.249769,-0.0603 0.115411,-0.062 0.180868,-0.17398 0.06718,-0.11197 0.06718,-0.25494 z"
         id="path4113" /><path
         d="m 36.975961,139.69584 q 0,0.60806 -0.215318,0.92845 -0.213596,0.32039 -0.632176,0.32039 -0.418579,0 -0.62873,-0.31867 -0.210151,-0.31867 -0.210151,-0.93017 0,-0.62529 0.203261,-0.93707 0.204983,-0.31178 0.645956,-0.31178 0.428914,0 0.632175,0.31522 0.204983,0.31523 0.204983,0.93363 z m -0.315226,0 q 0,-0.52538 -0.122301,-0.76137 -0.120579,-0.23599 -0.399631,-0.23599 -0.285944,0 -0.41169,0.23254 -0.124023,0.23255 -0.124023,0.76482 0,0.51676 0.125746,0.75619 0.127469,0.23944 0.403076,0.23944 0.273886,0 0.401354,-0.2446 0.127469,-0.24461 0.127469,-0.75103 z"
         id="path4115" /></g><g
       aria-label="180"
       id="text3158"
       style="font-size:3.52778px;line-height:1.25;letter-spacing:0px;word-spacing:0px;fill:#4d4d4d;stroke-width:0.264583"><path
         d="m 31.496533,148.8477 v -0.26355 h 0.618395 v -1.86724 l -0.54777,0.39102 v -0.29284 l 0.573609,-0.39446 h 0.285943 v 2.16352 h 0.590834 v 0.26355 z"
         id="path4118" /><path
         d="m 34.998475,148.17074 q 0,0.3359 -0.213596,0.52366 -0.213596,0.18775 -0.613227,0.18775 -0.389296,0 -0.609783,-0.18431 -0.218763,-0.18431 -0.218763,-0.52365 0,-0.23772 0.136081,-0.39964 0.136081,-0.16192 0.347955,-0.19637 v -0.007 q -0.198093,-0.0465 -0.313504,-0.20153 -0.113688,-0.15503 -0.113688,-0.36346 0,-0.27733 0.206706,-0.44959 0.208428,-0.17225 0.558105,-0.17225 0.358291,0 0.564997,0.16881 0.208428,0.16881 0.208428,0.45647 0,0.20843 -0.115411,0.36346 -0.115411,0.15503 -0.315226,0.19465 v 0.007 q 0.232544,0.0379 0.361735,0.19809 0.129191,0.15848 0.129191,0.39791 z m -0.382406,-1.14377 q 0,-0.41169 -0.451308,-0.41169 -0.218763,0 -0.334174,0.10335 -0.113688,0.10335 -0.113688,0.30834 0,0.20843 0.117133,0.31867 0.118856,0.10852 0.334175,0.10852 0.218763,0 0.332452,-0.0999 0.11541,-0.10163 0.11541,-0.32728 z m 0.06029,1.11449 q 0,-0.22566 -0.134358,-0.33935 -0.134359,-0.11541 -0.377239,-0.11541 -0.235989,0 -0.368625,0.12403 -0.132636,0.1223 -0.132636,0.33762 0,0.50126 0.511597,0.50126 0.253214,0 0.377238,-0.12058 0.124023,-0.1223 0.124023,-0.38757 z"
         id="path4120" /><path
         d="m 36.975961,147.63331 q 0,0.60805 -0.215318,0.92845 -0.213596,0.32039 -0.632176,0.32039 -0.418579,0 -0.62873,-0.31867 -0.210151,-0.31867 -0.210151,-0.93017 0,-0.62529 0.203261,-0.93707 0.204983,-0.31178 0.645956,-0.31178 0.428914,0 0.632175,0.31522 0.204983,0.31523 0.204983,0.93363 z m -0.315226,0 q 0,-0.52538 -0.122301,-0.76137 -0.120579,-0.23599 -0.399631,-0.23599 -0.285944,0 -0.41169,0.23254 -0.124023,0.23255 -0.124023,0.76482 0,0.51676 0.125746,0.75619 0.127469,0.23944 0.403076,0.23944 0.273886,0 0.401354,-0.2446 0.127469,-0.24461 0.127469,-0.75103 z"
         id="path4122" /></g><g
       aria-label="170"
       id="text3162"
       style="font-size:3.52778px;line-height:1.25;letter-spacing:0px;word-spacing:0px;fill:#4d4d4d;stroke-width:0.264583"><path
         d="m 31.496533,156.78517 v -0.26355 h 0.618395 v -1.86724 l -0.54777,0.39102 v -0.29284 l 0.573609,-0.39446 h 0.285943 v 2.16352 h 0.590834 v 0.26355 z"
         id="path4125" /><path
         d="m 34.974359,154.60959 q -0.37207,0.56844 -0.525377,0.89056 -0.153307,0.32212 -0.230822,0.63562 -0.07579,0.3135 -0.07579,0.6494 h -0.323839 q 0,-0.46509 0.196371,-0.97841 0.198093,-0.51504 0.659736,-1.18511 h -1.30397 v -0.26355 h 1.603693 z"
         id="path4127" /><path
         d="m 36.975961,155.57077 q 0,0.60806 -0.215318,0.92846 -0.213596,0.32039 -0.632176,0.32039 -0.418579,0 -0.62873,-0.31867 -0.210151,-0.31867 -0.210151,-0.93018 0,-0.62528 0.203261,-0.93706 0.204983,-0.31178 0.645956,-0.31178 0.428914,0 0.632175,0.31522 0.204983,0.31523 0.204983,0.93362 z m -0.315226,0 q 0,-0.52537 -0.122301,-0.76136 -0.120579,-0.23599 -0.399631,-0.23599 -0.285944,0 -0.41169,0.23254 -0.124023,0.23255 -0.124023,0.76481 0,0.51677 0.125746,0.7562 0.127469,0.23944 0.403076,0.23944 0.273886,0 0.401354,-0.2446 0.127469,-0.24461 0.127469,-0.75104 z"
         id="path4129" /></g><g
       aria-label="160"
       id="text3166"
       style="font-size:3.52778px;line-height:1.25;letter-spacing:0px;word-spacing:0px;fill:#4d4d4d;stroke-width:0.264583"><path
         d="m 31.496533,164.72264 v -0.26355 h 0.618395 v -1.86724 l -0.54777,0.39102 v -0.29284 l 0.573609,-0.39446 h 0.285943 v 2.16352 h 0.590834 v 0.26355 z"
         id="path4132" /><path
         d="m 34.996753,163.92855 q 0,0.38412 -0.208429,0.60633 -0.208428,0.22221 -0.575331,0.22221 -0.409967,0 -0.627008,-0.30489 -0.217041,-0.30489 -0.217041,-0.88711 0,-0.63045 0.225654,-0.96807 0.225654,-0.33762 0.642511,-0.33762 0.549493,0 0.692464,0.49437 l -0.296278,0.0534 q -0.09129,-0.29628 -0.399632,-0.29628 -0.265272,0 -0.411689,0.24805 -0.144694,0.24632 -0.144694,0.71485 0.0844,-0.15675 0.237712,-0.23771 0.153307,-0.0827 0.3514,-0.0827 0.335897,0 0.532267,0.21015 0.198094,0.21015 0.198094,0.565 z m -0.315227,0.0138 q 0,-0.26355 -0.129191,-0.40653 -0.129191,-0.14297 -0.360013,-0.14297 -0.217041,0 -0.3514,0.12747 -0.132636,0.12575 -0.132636,0.34796 0,0.28077 0.137804,0.45992 0.139526,0.17914 0.356568,0.17914 0.223931,0 0.3514,-0.14986 0.127468,-0.15158 0.127468,-0.41513 z"
         id="path4134" /><path
         d="m 36.975961,163.50824 q 0,0.60806 -0.215318,0.92846 -0.213596,0.32039 -0.632176,0.32039 -0.418579,0 -0.62873,-0.31867 -0.210151,-0.31867 -0.210151,-0.93018 0,-0.62528 0.203261,-0.93706 0.204983,-0.31178 0.645956,-0.31178 0.428914,0 0.632175,0.31522 0.204983,0.31523 0.204983,0.93362 z m -0.315226,0 q 0,-0.52537 -0.122301,-0.76136 -0.120579,-0.23599 -0.399631,-0.23599 -0.285944,0 -0.41169,0.23254 -0.124023,0.23255 -0.124023,0.76481 0,0.51677 0.125746,0.7562 0.127469,0.23944 0.403076,0.23944 0.273886,0 0.401354,-0.2446 0.127469,-0.24461 0.127469,-0.75104 z"
         id="path4136" /></g><g
       aria-label="10/21"
       id="text3170"
       style="font-size:3.52778px;line-height:1.25;letter-spacing:-0.0264583px;word-spacing:0px;fill:#4d4d4d;stroke-width:0.264583"><path
         d="m 34.671534,171.07271 v -0.26355 h 0.618395 v -1.86724 l -0.54777,0.39101 v -0.29283 l 0.573609,-0.39446 h 0.285943 v 2.16352 h 0.590834 v 0.26355 z"
         id="path4139" /><path
         d="m 38.162521,169.85831 q 0,0.60806 -0.215319,0.92846 -0.213596,0.32039 -0.632175,0.32039 -0.418579,0 -0.62873,-0.31867 -0.210151,-0.31867 -0.210151,-0.93018 0,-0.62528 0.20326,-0.93707 0.204984,-0.31178 0.645956,-0.31178 0.428915,0 0.632176,0.31523 0.204983,0.31523 0.204983,0.93362 z m -0.315226,0 q 0,-0.52538 -0.122301,-0.76137 -0.120579,-0.23598 -0.399632,-0.23598 -0.285943,0 -0.411689,0.23254 -0.124023,0.23254 -0.124023,0.76481 0,0.51677 0.125746,0.7562 0.127468,0.23943 0.403076,0.23943 0.273885,0 0.401354,-0.2446 0.127469,-0.2446 0.127469,-0.75103 z"
         id="path4141" /><path
         d="m 38.273867,171.10716 0.707967,-2.59071 h 0.272163 l -0.701077,2.59071 z"
         id="path4143" /><path
         d="m 39.404961,171.07271 v -0.21877 q 0.08785,-0.20153 0.213596,-0.35484 0.127469,-0.15503 0.266995,-0.27905 0.139527,-0.12575 0.275608,-0.23255 0.137804,-0.1068 0.248047,-0.21359 0.110243,-0.1068 0.177423,-0.22394 0.0689,-0.11713 0.0689,-0.26527 0,-0.19981 -0.117134,-0.31006 -0.117133,-0.11024 -0.325561,-0.11024 -0.198094,0 -0.327285,0.10852 -0.127468,0.1068 -0.149862,0.30145 l -0.316948,-0.0293 q 0.03445,-0.29111 0.246324,-0.46336 0.213596,-0.17226 0.547771,-0.17226 0.366902,0 0.563273,0.17398 0.198093,0.17226 0.198093,0.49093 0,0.14125 -0.06546,0.28077 -0.06373,0.13953 -0.191203,0.27906 -0.127468,0.13952 -0.487481,0.43236 -0.198093,0.16191 -0.315226,0.29283 -0.117134,0.12919 -0.16881,0.24977 h 1.266073 v 0.26355 z"
         id="path4145" /><path
         d="m 41.431781,171.07271 v -0.26355 h 0.618395 v -1.86724 l -0.54777,0.39101 v -0.29283 l 0.573608,-0.39446 h 0.285944 v 2.16352 h 0.590834 v 0.26355 z"
         id="path4147" /></g><g
       aria-label="4/21"
       id="text3174"
       style="font-size:3.52778px;line-height:1.25;letter-spacing:-0.0264583px;word-spacing:0px;fill:#4d4d4d;stroke-width:0.264583"><path
         d="m 50.737052,170.52322 v 0.54949 h -0.292834 v -0.54949 h -1.143772 v -0.24116 l 1.111044,-1.63642 h 0.325562 v 1.63297 h 0.341064 v 0.24461 z m -0.292834,-1.52791 q -0.0034,0.0103 -0.04823,0.0913 -0.04479,0.081 -0.06718,0.11369 l -0.62184,0.91639 -0.09302,0.12747 -0.02756,0.0344 h 0.857829 z"
         id="path4150" /><path
         d="m 51.155011,171.10716 0.707968,-2.59071 h 0.272162 l -0.701077,2.59071 z"
         id="path4152" /><path
         d="m 52.286106,171.07271 v -0.21877 q 0.08785,-0.20153 0.213596,-0.35484 0.127468,-0.15503 0.266995,-0.27905 0.139526,-0.12575 0.275608,-0.23255 0.137803,-0.1068 0.248047,-0.21359 0.110243,-0.1068 0.177422,-0.22394 0.0689,-0.11713 0.0689,-0.26527 0,-0.19981 -0.117133,-0.31006 -0.117134,-0.11024 -0.325562,-0.11024 -0.198093,0 -0.327284,0.10852 -0.127469,0.1068 -0.149862,0.30145 l -0.316949,-0.0293 q 0.03445,-0.29111 0.246325,-0.46336 0.213596,-0.17226 0.54777,-0.17226 0.366903,0 0.563274,0.17398 0.198093,0.17226 0.198093,0.49093 0,0.14125 -0.06546,0.28077 -0.06373,0.13953 -0.191203,0.27906 -0.127469,0.13952 -0.487481,0.43236 -0.198094,0.16191 -0.315227,0.29283 -0.117133,0.12919 -0.16881,0.24977 h 1.266074 v 0.26355 z"
         id="path4154" /><path
         d="m 54.312926,171.07271 v -0.26355 h 0.618395 v -1.86724 l -0.547771,0.39101 v -0.29283 l 0.573609,-0.39446 h 0.285943 v 2.16352 h 0.590834 v 0.26355 z"
         id="path4156" /></g><g
       aria-label="10/21"
       id="text3180"
       style="font-size:3.52778px;line-height:1.25;letter-spacing:-0.0264583px;word-spacing:0px;fill:#4d4d4d;stroke-width:0.264583"><path
         d="m 62.717376,171.07271 v -0.26355 h 0.618395 v -1.86724 L 62.788,169.33293 v -0.29283 l 0.573609,-0.39446 h 0.285943 v 2.16352 h 0.590834 v 0.26355 z"
         id="path4159" /><path
         d="m 66.208362,169.85831 q 0,0.60806 -0.215318,0.92846 -0.213596,0.32039 -0.632176,0.32039 -0.418579,0 -0.62873,-0.31867 -0.210151,-0.31867 -0.210151,-0.93018 0,-0.62528 0.203261,-0.93707 0.204983,-0.31178 0.645955,-0.31178 0.428915,0 0.632176,0.31523 0.204983,0.31523 0.204983,0.93362 z m -0.315226,0 q 0,-0.52538 -0.122301,-0.76137 -0.120579,-0.23598 -0.399632,-0.23598 -0.285943,0 -0.411689,0.23254 -0.124023,0.23254 -0.124023,0.76481 0,0.51677 0.125746,0.7562 0.127468,0.23943 0.403076,0.23943 0.273885,0 0.401354,-0.2446 0.127469,-0.2446 0.127469,-0.75103 z"
         id="path4161" /><path
         d="m 66.319708,171.10716 0.707967,-2.59071 h 0.272163 l -0.701077,2.59071 z"
         id="path4163" /><path
         d="m 67.450802,171.07271 v -0.21877 q 0.08785,-0.20153 0.213596,-0.35484 0.127469,-0.15503 0.266995,-0.27905 0.139527,-0.12575 0.275608,-0.23255 0.137804,-0.1068 0.248047,-0.21359 0.110243,-0.1068 0.177423,-0.22394 0.0689,-0.11713 0.0689,-0.26527 0,-0.19981 -0.117134,-0.31006 -0.117133,-0.11024 -0.325561,-0.11024 -0.198093,0 -0.327285,0.10852 -0.127468,0.1068 -0.149861,0.30145 l -0.316949,-0.0293 q 0.03445,-0.29111 0.246324,-0.46336 0.213596,-0.17226 0.547771,-0.17226 0.366903,0 0.563273,0.17398 0.198093,0.17226 0.198093,0.49093 0,0.14125 -0.06546,0.28077 -0.06373,0.13953 -0.191202,0.27906 -0.127469,0.13952 -0.487482,0.43236 -0.198093,0.16191 -0.315226,0.29283 -0.117134,0.12919 -0.16881,0.24977 h 1.266073 v 0.26355 z"
         id="path4165" /><path
         d="m 69.477622,171.07271 v -0.26355 h 0.618395 v -1.86724 l -0.54777,0.39101 v -0.29283 l 0.573609,-0.39446 h 0.285943 v 2.16352 h 0.590834 v 0.26355 z"
         id="path4167" /></g><g
       aria-label="4/21"
       id="text3184"
       style="font-size:3.52778px;line-height:1.25;letter-spacing:-0.0264583px;word-spacing:0px;fill:#4d4d4d;stroke-width:0.264583"><path
         d="m 79.312053,170.52322 v 0.54949 h -0.292834 v -0.54949 h -1.143772 v -0.24116 l 1.111044,-1.63642 h 0.325562 v 1.63297 h 0.341064 v 0.24461 z m -0.292834,-1.52791 q -0.0034,0.0103 -0.04823,0.0913 -0.04479,0.081 -0.06718,0.11369 l -0.62184,0.91639 -0.09302,0.12747 -0.02756,0.0344 h 0.857829 z"
         id="path4170" /><path
         d="m 79.730012,171.10716 0.707968,-2.59071 h 0.272162 l -0.701077,2.59071 z"
         id="path4172" /><path
         d="m 80.861106,171.07271 v -0.21877 q 0.08785,-0.20153 0.213596,-0.35484 0.127469,-0.15503 0.266996,-0.27905 0.139526,-0.12575 0.275607,-0.23255 0.137804,-0.1068 0.248047,-0.21359 0.110244,-0.1068 0.177423,-0.22394 0.0689,-0.11713 0.0689,-0.26527 0,-0.19981 -0.117133,-0.31006 -0.117134,-0.11024 -0.325562,-0.11024 -0.198093,0 -0.327284,0.10852 -0.127469,0.1068 -0.149862,0.30145 l -0.316949,-0.0293 q 0.03445,-0.29111 0.246324,-0.46336 0.213596,-0.17226 0.547771,-0.17226 0.366903,0 0.563273,0.17398 0.198093,0.17226 0.198093,0.49093 0,0.14125 -0.06546,0.28077 -0.06373,0.13953 -0.191203,0.27906 -0.127469,0.13952 -0.487482,0.43236 -0.198093,0.16191 -0.315226,0.29283 -0.117133,0.12919 -0.16881,0.24977 h 1.266073 v 0.26355 z"
         id="path4174" /><path
         d="m 82.887926,171.07271 v -0.26355 h 0.618395 v -1.86724 l -0.54777,0.39101 v -0.29283 l 0.573609,-0.39446 h 0.285943 v 2.16352 h 0.590834 v 0.26355 z"
         id="path4176" /></g><g
       aria-label="10/21"
       id="text3188"
       style="font-size:3.52778px;line-height:1.25;letter-spacing:-0.0264583px;word-spacing:0px;fill:#4d4d4d;stroke-width:0.264583"><path
         d="m 91.292361,171.07271 v -0.26355 h 0.618395 v -1.86724 l -0.54777,0.39101 v -0.29283 l 0.573608,-0.39446 h 0.285943 v 2.16352 h 0.590835 v 0.26355 z"
         id="path4179" /><path
         d="m 94.783348,169.85831 q 0,0.60806 -0.215319,0.92846 -0.213596,0.32039 -0.632175,0.32039 -0.41858,0 -0.628731,-0.31867 -0.210151,-0.31867 -0.210151,-0.93018 0,-0.62528 0.203261,-0.93707 0.204983,-0.31178 0.645956,-0.31178 0.428915,0 0.632175,0.31523 0.204984,0.31523 0.204984,0.93362 z m -0.315227,0 q 0,-0.52538 -0.122301,-0.76137 -0.120578,-0.23598 -0.399631,-0.23598 -0.285943,0 -0.411689,0.23254 -0.124024,0.23254 -0.124024,0.76481 0,0.51677 0.125746,0.7562 0.127469,0.23943 0.403077,0.23943 0.273885,0 0.401354,-0.2446 0.127468,-0.2446 0.127468,-0.75103 z"
         id="path4181" /><path
         d="m 94.894693,171.10716 0.707968,-2.59071 h 0.272163 l -0.701078,2.59071 z"
         id="path4183" /><path
         d="m 96.025788,171.07271 v -0.21877 q 0.08785,-0.20153 0.213596,-0.35484 0.127469,-0.15503 0.266995,-0.27905 0.139526,-0.12575 0.275608,-0.23255 0.137804,-0.1068 0.248047,-0.21359 0.110243,-0.1068 0.177422,-0.22394 0.0689,-0.11713 0.0689,-0.26527 0,-0.19981 -0.117133,-0.31006 -0.117133,-0.11024 -0.325562,-0.11024 -0.198093,0 -0.327284,0.10852 -0.127469,0.1068 -0.149862,0.30145 l -0.316949,-0.0293 q 0.03445,-0.29111 0.246325,-0.46336 0.213596,-0.17226 0.54777,-0.17226 0.366903,0 0.563274,0.17398 0.198093,0.17226 0.198093,0.49093 0,0.14125 -0.06546,0.28077 -0.06373,0.13953 -0.191203,0.27906 -0.127469,0.13952 -0.487481,0.43236 -0.198093,0.16191 -0.315227,0.29283 -0.117133,0.12919 -0.168809,0.24977 h 1.266073 v 0.26355 z"
         id="path4185" /><path
         d="m 98.052608,171.07271 v -0.26355 h 0.618395 v -1.86724 l -0.547771,0.39101 v -0.29283 l 0.573609,-0.39446 h 0.285943 v 2.16352 h 0.590835 v 0.26355 z"
         id="path4187" /></g><g
       aria-label="4/21"
       id="text3192"
       style="font-size:3.52778px;line-height:1.25;letter-spacing:-0.0264583px;word-spacing:0px;fill:#4d4d4d;stroke-width:0.264583"><path
         d="m 107.88704,170.52322 v 0.54949 h -0.29283 v -0.54949 h -1.14377 v -0.24116 l 1.11104,-1.63642 h 0.32556 v 1.63297 h 0.34107 v 0.24461 z m -0.29283,-1.52791 q -0.003,0.0103 -0.0482,0.0913 -0.0448,0.081 -0.0672,0.11369 l -0.62184,0.91639 -0.093,0.12747 -0.0276,0.0344 h 0.85783 z"
         id="path4190" /><path
         d="m 108.305,171.10716 0.70797,-2.59071 h 0.27216 l -0.70108,2.59071 z"
         id="path4192" /><path
         d="m 109.4361,171.07271 v -0.21877 q 0.0879,-0.20153 0.21359,-0.35484 0.12747,-0.15503 0.267,-0.27905 0.13952,-0.12575 0.2756,-0.23255 0.13781,-0.1068 0.24805,-0.21359 0.11024,-0.1068 0.17742,-0.22394 0.0689,-0.11713 0.0689,-0.26527 0,-0.19981 -0.11714,-0.31006 -0.11713,-0.11024 -0.32556,-0.11024 -0.19809,0 -0.32728,0.10852 -0.12747,0.1068 -0.14986,0.30145 l -0.31695,-0.0293 q 0.0345,-0.29111 0.24632,-0.46336 0.2136,-0.17226 0.54777,-0.17226 0.3669,0 0.56327,0.17398 0.1981,0.17226 0.1981,0.49093 0,0.14125 -0.0655,0.28077 -0.0637,0.13953 -0.1912,0.27906 -0.12747,0.13952 -0.48748,0.43236 -0.1981,0.16191 -0.31523,0.29283 -0.11713,0.12919 -0.16881,0.24977 h 1.26607 v 0.26355 z"
         id="path4194" /><path
         d="m 111.46292,171.07271 v -0.26355 h 0.61839 v -1.86724 l -0.54777,0.39101 v -0.29283 l 0.57361,-0.39446 h 0.28594 v 2.16352 h 0.59084 v 0.26355 z"
         id="path4196" /></g><g
       aria-label="10/21"
       id="text3196"
       style="font-size:3.52778px;line-height:1.25;letter-spacing:-0.0264583px;word-spacing:0px;fill:#4d4d4d;stroke-width:0.264583"><path
         d="m 119.86737,171.07271 v -0.26355 h 0.61839 v -1.86724 l -0.54777,0.39101 v -0.29283 l 0.57361,-0.39446 h 0.28594 v 2.16352 h 0.59084 v 0.26355 z"
         id="path4199" /><path
         d="m 123.35835,169.85831 q 0,0.60806 -0.21532,0.92846 -0.21359,0.32039 -0.63217,0.32039 -0.41858,0 -0.62873,-0.31867 -0.21015,-0.31867 -0.21015,-0.93018 0,-0.62528 0.20326,-0.93707 0.20498,-0.31178 0.64595,-0.31178 0.42892,0 0.63218,0.31523 0.20498,0.31523 0.20498,0.93362 z m -0.31522,0 q 0,-0.52538 -0.12231,-0.76137 -0.12057,-0.23598 -0.39963,-0.23598 -0.28594,0 -0.41169,0.23254 -0.12402,0.23254 -0.12402,0.76481 0,0.51677 0.12575,0.7562 0.12747,0.23943 0.40307,0.23943 0.27389,0 0.40136,-0.2446 0.12747,-0.2446 0.12747,-0.75103 z"
         id="path4201" /><path
         d="m 123.4697,171.10716 0.70797,-2.59071 h 0.27216 l -0.70108,2.59071 z"
         id="path4203" /><path
         d="m 124.60079,171.07271 v -0.21877 q 0.0879,-0.20153 0.2136,-0.35484 0.12747,-0.15503 0.26699,-0.27905 0.13953,-0.12575 0.27561,-0.23255 0.13781,-0.1068 0.24805,-0.21359 0.11024,-0.1068 0.17742,-0.22394 0.0689,-0.11713 0.0689,-0.26527 0,-0.19981 -0.11713,-0.31006 -0.11713,-0.11024 -0.32556,-0.11024 -0.1981,0 -0.32729,0.10852 -0.12747,0.1068 -0.14986,0.30145 l -0.31695,-0.0293 q 0.0344,-0.29111 0.24633,-0.46336 0.21359,-0.17226 0.54777,-0.17226 0.3669,0 0.56327,0.17398 0.19809,0.17226 0.19809,0.49093 0,0.14125 -0.0654,0.28077 -0.0637,0.13953 -0.19121,0.27906 -0.12746,0.13952 -0.48748,0.43236 -0.19809,0.16191 -0.31522,0.29283 -0.11714,0.12919 -0.16881,0.24977 h 1.26607 v 0.26355 z"
         id="path4205" /><path
         d="m 126.62761,171.07271 v -0.26355 h 0.6184 v -1.86724 l -0.54777,0.39101 v -0.29283 l 0.57361,-0.39446 h 0.28594 v 2.16352 h 0.59083 v 0.26355 z"
         id="path4207" /></g><g
       aria-label="4/21"
       id="text3200"
       style="font-size:3.52778px;line-height:1.25;letter-spacing:-0.0264583px;word-spacing:0px;fill:#4d4d4d;stroke-width:0.264583"><path
         d="m 135.93285,170.52322 v 0.54949 h -0.29283 v -0.54949 h -1.14378 v -0.24116 l 1.11105,-1.63642 h 0.32556 v 1.63297 h 0.34106 v 0.24461 z m -0.29283,-1.52791 q -0.003,0.0103 -0.0482,0.0913 -0.0448,0.081 -0.0672,0.11369 l -0.62184,0.91639 -0.093,0.12747 -0.0276,0.0344 h 0.85783 z"
         id="path4210" /><path
         d="m 136.35081,171.10716 0.70797,-2.59071 h 0.27216 l -0.70108,2.59071 z"
         id="path4212" /><path
         d="m 137.4819,171.07271 v -0.21877 q 0.0879,-0.20153 0.2136,-0.35484 0.12747,-0.15503 0.26699,-0.27905 0.13953,-0.12575 0.27561,-0.23255 0.13781,-0.1068 0.24805,-0.21359 0.11024,-0.1068 0.17742,-0.22394 0.0689,-0.11713 0.0689,-0.26527 0,-0.19981 -0.11713,-0.31006 -0.11713,-0.11024 -0.32556,-0.11024 -0.1981,0 -0.32729,0.10852 -0.12746,0.1068 -0.14986,0.30145 l -0.31695,-0.0293 q 0.0345,-0.29111 0.24633,-0.46336 0.21359,-0.17226 0.54777,-0.17226 0.3669,0 0.56327,0.17398 0.19809,0.17226 0.19809,0.49093 0,0.14125 -0.0654,0.28077 -0.0637,0.13953 -0.19121,0.27906 -0.12746,0.13952 -0.48748,0.43236 -0.19809,0.16191 -0.31522,0.29283 -0.11714,0.12919 -0.16881,0.24977 h 1.26607 v 0.26355 z"
         id="path4214" /><path
         d="m 139.50872,171.07271 v -0.26355 h 0.6184 v -1.86724 l -0.54777,0.39101 v -0.29283 l 0.57361,-0.39446 h 0.28594 v 2.16352 h 0.59083 v 0.26355 z"
         id="path4216" /></g><g
       aria-label="192.2 lbs"
       id="text3204"
       style="font-size:5.64444px;line-height:1.25;letter-spacing:-0.132292px;word-spacing:0px;stroke-width:0.264583"><path
         d="m 33.245263,99.106178 v -0.421679 h 0.989431 v -2.987585 l -0.876432,0.625629 v -0.468532 l 0.917773,-0.631141 h 0.457508 v 3.461629 h 0.945333 v 0.421679 z"
         id="path3943" /><path
         d="m 38.694021,97.085976 q 0,1.000455 -0.366558,1.537889 -0.363801,0.537435 -1.03904,0.537435 -0.454752,0 -0.730359,-0.190169 -0.272852,-0.192926 -0.391363,-0.620117 l 0.474045,-0.07441 q 0.148828,0.485069 0.655946,0.485069 0.427191,0 0.661458,-0.396875 0.234266,-0.396874 0.24529,-1.132746 -0.110243,0.248046 -0.377582,0.399631 -0.267339,0.148828 -0.587044,0.148828 -0.523654,0 -0.837846,-0.35829 -0.314193,-0.35829 -0.314193,-0.950846 0,-0.609092 0.341753,-0.956358 0.341754,-0.350021 0.950846,-0.350021 0.647677,0 0.981162,0.479557 0.333485,0.479557 0.333485,1.441427 z m -0.54019,-0.479557 q 0,-0.468533 -0.214974,-0.752408 -0.214974,-0.286632 -0.57602,-0.286632 -0.358289,0 -0.564995,0.24529 -0.206705,0.242535 -0.206705,0.658702 0,0.424436 0.206705,0.672482 0.206706,0.245291 0.559483,0.245291 0.214974,0 0.399631,-0.09646 0.184657,-0.09922 0.289388,-0.278363 0.107487,-0.179145 0.107487,-0.407899 z"
         id="path3945" /><path
         d="m 39.112944,99.106178 v -0.350021 q 0.14056,-0.322461 0.341754,-0.567751 0.203949,-0.248047 0.427191,-0.446484 0.223242,-0.201194 0.440972,-0.372071 0.220486,-0.170876 0.396875,-0.341753 0.176388,-0.170876 0.283875,-0.358289 0.110243,-0.187413 0.110243,-0.424436 0,-0.319704 -0.187413,-0.496093 -0.187413,-0.176389 -0.520898,-0.176389 -0.316948,0 -0.523654,0.173633 -0.203949,0.170876 -0.239778,0.482313 l -0.507118,-0.04685 q 0.05512,-0.465776 0.394119,-0.741384 0.341753,-0.275607 0.876431,-0.275607 0.587044,0 0.901236,0.278364 0.316949,0.275607 0.316949,0.785481 0,0.225998 -0.104731,0.44924 -0.101975,0.223242 -0.305924,0.446484 -0.20395,0.223242 -0.779969,0.691775 -0.316949,0.25907 -0.504362,0.468532 -0.187413,0.206706 -0.270095,0.399631 h 2.025715 v 0.421679 z"
         id="path3947" /><path
         d="m 42.351331,99.106178 v -0.60358 h 0.537435 v 0.60358 z"
         id="path3949" /><path
         d="m 43.555736,99.106178 v -0.350021 q 0.14056,-0.322461 0.341753,-0.567751 0.203949,-0.248047 0.427192,-0.446484 0.223242,-0.201194 0.440971,-0.372071 0.220486,-0.170876 0.396875,-0.341753 0.176389,-0.170876 0.283876,-0.358289 0.110243,-0.187413 0.110243,-0.424436 0,-0.319704 -0.187413,-0.496093 -0.187413,-0.176389 -0.520898,-0.176389 -0.316949,0 -0.523654,0.173633 -0.20395,0.170876 -0.239779,0.482313 l -0.507118,-0.04685 q 0.05512,-0.465776 0.394119,-0.741384 0.341753,-0.275607 0.876432,-0.275607 0.587043,0 0.901236,0.278364 0.316948,0.275607 0.316948,0.785481 0,0.225998 -0.10473,0.44924 -0.101975,0.223242 -0.305925,0.446484 -0.203949,0.223242 -0.779969,0.691775 -0.316948,0.25907 -0.504361,0.468532 -0.187413,0.206706 -0.270096,0.399631 h 2.025715 v 0.421679 z"
         id="path3951" /><path
         d="m 48.094989,99.106178 v -4.090014 h 0.496094 v 4.090014 z"
         id="path3953" /><path
         d="m 51.738519,97.601362 q 0,1.559938 -1.096918,1.559938 -0.338997,0 -0.564995,-0.121267 -0.223242,-0.124024 -0.363802,-0.396875 h -0.0055 q 0,0.08544 -0.01102,0.261827 -0.01103,0.173633 -0.01654,0.201193 h -0.479557 q 0.01654,-0.148828 0.01654,-0.614604 v -3.47541 h 0.496093 v 1.165819 q 0,0.179145 -0.01102,0.42168 h 0.01102 q 0.137804,-0.286632 0.363802,-0.410655 0.228754,-0.124024 0.564995,-0.124024 0.564995,0 0.829578,0.380339 0.26734,0.380338 0.26734,1.152039 z m -0.520898,0.01654 q 0,-0.625629 -0.165365,-0.895724 -0.165364,-0.270095 -0.537434,-0.270095 -0.418924,0 -0.611849,0.286631 -0.190169,0.286632 -0.190169,0.909505 0,0.587044 0.187413,0.868163 0.187413,0.278364 0.609092,0.278364 0.374827,0 0.540191,-0.275608 0.168121,-0.278363 0.168121,-0.901236 z"
         id="path3955" /><path
         d="m 54.461521,98.282112 q 0,0.421679 -0.319705,0.650434 -0.316948,0.228754 -0.890212,0.228754 -0.556727,0 -0.859895,-0.181901 -0.300412,-0.184657 -0.391362,-0.573264 l 0.438215,-0.08544 q 0.06339,0.239779 0.261827,0.352778 0.198438,0.110243 0.551215,0.110243 0.377582,0 0.551215,-0.115756 0.176389,-0.115755 0.176389,-0.347265 0,-0.176389 -0.121267,-0.286632 -0.121268,-0.110243 -0.391363,-0.181901 l -0.355534,-0.09371 q -0.427191,-0.110243 -0.609092,-0.214974 -0.179145,-0.107487 -0.28112,-0.259071 -0.101974,-0.151584 -0.101974,-0.37207 0,-0.407899 0.289388,-0.620117 0.292143,-0.214973 0.84887,-0.214973 0.493338,0 0.782725,0.173632 0.292144,0.173633 0.369314,0.556727 l -0.446484,0.05512 q -0.04134,-0.198438 -0.223242,-0.303168 -0.179144,-0.107487 -0.482313,-0.107487 -0.336241,0 -0.496093,0.101974 -0.159852,0.101975 -0.159852,0.308681 0,0.126779 0.06614,0.209461 0.06615,0.08268 0.195682,0.14056 0.129535,0.05788 0.545702,0.159853 0.394119,0.09922 0.567752,0.184657 0.173632,0.08268 0.272851,0.184657 0.101975,0.101974 0.157096,0.237022 0.05512,0.132291 0.05512,0.303168 z"
         id="path3957" /></g><g
       aria-label="158 lbs"
       id="text3208"
       style="font-size:5.64444px;line-height:1.25;letter-spacing:-0.132292px;word-spacing:0px;stroke-width:0.264583"><path
         d="m 80.341096,99.106178 v -0.421679 h 0.98943 v -2.987585 l -0.876431,0.625629 v -0.468532 l 0.917772,-0.631141 h 0.457509 v 3.461629 h 0.945333 v 0.421679 z"
         id="path3960" /><path
         d="m 85.820171,97.84114 q 0,0.614605 -0.366558,0.967382 -0.363802,0.352778 -1.011479,0.352778 -0.542947,0 -0.876432,-0.237023 -0.333485,-0.237022 -0.421679,-0.686262 l 0.501605,-0.05788 q 0.157097,0.57602 0.80753,0.57602 0.399631,0 0.625629,-0.239779 0.225998,-0.242534 0.225998,-0.664214 0,-0.366557 -0.228754,-0.592555 -0.225998,-0.225999 -0.611849,-0.225999 -0.201193,0 -0.374826,0.06339 -0.173632,0.06339 -0.347265,0.214974 h -0.485069 l 0.129535,-2.089104 h 2.207616 v 0.421679 h -1.755619 l -0.07441,1.231965 q 0.32246,-0.248047 0.802017,-0.248047 0.573264,0 0.912261,0.336242 0.341753,0.336241 0.341753,0.876431 z"
         id="path3962" /><path
         d="m 88.81878,98.023041 q 0,0.537435 -0.341754,0.837847 -0.341753,0.300412 -0.981162,0.300412 -0.622873,0 -0.97565,-0.2949 -0.350022,-0.2949 -0.350022,-0.837847 0,-0.380338 0.21773,-0.639409 0.21773,-0.259071 0.556727,-0.314192 v -0.01102 q -0.316949,-0.07441 -0.501606,-0.32246 -0.1819,-0.248047 -0.1819,-0.581532 0,-0.443728 0.330728,-0.719336 0.333485,-0.275607 0.892969,-0.275607 0.573263,0 0.903992,0.270095 0.333485,0.270096 0.333485,0.73036 0,0.333485 -0.184657,0.581532 -0.184657,0.248046 -0.504362,0.311436 v 0.01102 q 0.37207,0.06063 0.578776,0.316949 0.206706,0.253559 0.206706,0.636652 z m -0.611849,-1.830033 q 0,-0.658702 -0.722091,-0.658702 -0.350022,0 -0.534679,0.165364 -0.181901,0.165365 -0.181901,0.493338 0,0.333485 0.187413,0.509873 0.190169,0.173633 0.534679,0.173633 0.350021,0 0.531922,-0.159852 0.184657,-0.162609 0.184657,-0.523654 z m 0.09646,1.78318 q 0,-0.361046 -0.214974,-0.542947 -0.214974,-0.184657 -0.60358,-0.184657 -0.377583,0 -0.5898,0.198438 -0.212218,0.195681 -0.212218,0.54019 0,0.802018 0.818554,0.802018 0.405143,0 0.60358,-0.192925 0.198438,-0.195682 0.198438,-0.620117 z"
         id="path3964" /><path
         d="m 90.748031,99.106178 v -4.090014 h 0.496094 v 4.090014 z"
         id="path3966" /><path
         d="m 94.39156,97.601362 q 0,1.559938 -1.096917,1.559938 -0.338997,0 -0.564995,-0.121267 -0.223242,-0.124024 -0.363802,-0.396875 h -0.0055 q 0,0.08544 -0.01102,0.261827 -0.01102,0.173633 -0.01654,0.201193 h -0.479557 q 0.01654,-0.148828 0.01654,-0.614604 v -3.47541 h 0.496094 v 1.165819 q 0,0.179145 -0.01102,0.42168 h 0.01102 q 0.137804,-0.286632 0.363802,-0.410655 0.228754,-0.124024 0.564995,-0.124024 0.564995,0 0.829578,0.380339 0.267339,0.380338 0.267339,1.152039 z m -0.520898,0.01654 q 0,-0.625629 -0.165364,-0.895724 -0.165365,-0.270095 -0.537435,-0.270095 -0.418923,0 -0.611848,0.286631 -0.190169,0.286632 -0.190169,0.909505 0,0.587044 0.187413,0.868163 0.187413,0.278364 0.609092,0.278364 0.374826,0 0.540191,-0.275608 0.16812,-0.278363 0.16812,-0.901236 z"
         id="path3968" /><path
         d="m 97.114562,98.282112 q 0,0.421679 -0.319705,0.650434 -0.316948,0.228754 -0.890212,0.228754 -0.556727,0 -0.859895,-0.181901 -0.300412,-0.184657 -0.391363,-0.573264 l 0.438216,-0.08544 q 0.06339,0.239779 0.261827,0.352778 0.198438,0.110243 0.551215,0.110243 0.377582,0 0.551215,-0.115756 0.176389,-0.115755 0.176389,-0.347265 0,-0.176389 -0.121268,-0.286632 -0.121267,-0.110243 -0.391362,-0.181901 l -0.355534,-0.09371 q -0.427191,-0.110243 -0.609092,-0.214974 -0.179145,-0.107487 -0.28112,-0.259071 -0.101974,-0.151584 -0.101974,-0.37207 0,-0.407899 0.289387,-0.620117 0.292144,-0.214973 0.848871,-0.214973 0.493338,0 0.782725,0.173632 0.292144,0.173633 0.369314,0.556727 l -0.446484,0.05512 q -0.04134,-0.198438 -0.223242,-0.303168 -0.179145,-0.107487 -0.482313,-0.107487 -0.336241,0 -0.496093,0.101974 -0.159852,0.101975 -0.159852,0.308681 0,0.126779 0.06615,0.209461 0.06615,0.08268 0.195682,0.14056 0.129535,0.05788 0.545702,0.159853 0.394119,0.09922 0.567752,0.184657 0.173632,0.08268 0.272851,0.184657 0.101975,0.101974 0.157096,0.237022 0.05512,0.132291 0.05512,0.303168 z"
         id="path3970" /></g><g
       aria-label="34.2 lbs"
       id="text3212"
       style="font-size:5.64444px;line-height:1.25;letter-spacing:-0.132292px;word-spacing:0px;stroke-width:0.264583"><path
         d="m 129.8981,98.034065 q 0,0.537435 -0.34175,0.832335 -0.34175,0.2949 -0.97565,0.2949 -0.5898,0 -0.94258,-0.264583 -0.35002,-0.26734 -0.41617,-0.788238 l 0.51263,-0.04685 q 0.0992,0.689019 0.84612,0.689019 0.37483,0 0.58704,-0.184657 0.21498,-0.184657 0.21498,-0.548459 0,-0.316949 -0.24529,-0.493337 -0.24254,-0.179145 -0.7028,-0.179145 h -0.28112 v -0.429948 h 0.27009 q 0.4079,0 0.63114,-0.176389 0.226,-0.179144 0.226,-0.493337 0,-0.311436 -0.18465,-0.490581 -0.18191,-0.181901 -0.54295,-0.181901 -0.32797,0 -0.53192,0.168121 -0.2012,0.16812 -0.23427,0.474044 l -0.49885,-0.03858 q 0.0551,-0.476801 0.39412,-0.74414 0.34175,-0.267339 0.87643,-0.267339 0.58429,0 0.90675,0.272851 0.32522,0.270096 0.32522,0.755165 0,0.37207 -0.20947,0.606336 -0.2067,0.23151 -0.60358,0.314193 v 0.01102 q 0.43546,0.04685 0.678,0.292144 0.24253,0.24529 0.24253,0.61736 z"
         id="path3973" /><path
         d="m 132.44196,98.226991 v 0.879187 h -0.46853 v -0.879187 h -1.83004 V 97.84114 l 1.77767,-2.61827 h 0.5209 v 2.612758 h 0.5457 v 0.391363 z m -0.46853,-2.444638 q -0.006,0.01654 -0.0772,0.146072 -0.0717,0.129535 -0.10749,0.181901 l -0.99494,1.466231 -0.14883,0.20395 -0.0441,0.05512 h 1.37253 z"
         id="path3975" /><path
         d="m 133.53612,99.106178 v -0.60358 h 0.53743 v 0.60358 z"
         id="path3977" /><path
         d="m 134.74052,99.106178 v -0.350021 q 0.14056,-0.322461 0.34176,-0.567751 0.20395,-0.248047 0.42719,-0.446484 0.22324,-0.201194 0.44097,-0.372071 0.22049,-0.170876 0.39688,-0.341753 0.17638,-0.170876 0.28387,-0.358289 0.11024,-0.187413 0.11024,-0.424436 0,-0.319704 -0.18741,-0.496093 -0.18741,-0.176389 -0.5209,-0.176389 -0.31695,0 -0.52365,0.173633 -0.20395,0.170876 -0.23978,0.482313 l -0.50712,-0.04685 q 0.0551,-0.465776 0.39412,-0.741384 0.34175,-0.275607 0.87643,-0.275607 0.58705,0 0.90124,0.278364 0.31695,0.275607 0.31695,0.785481 0,0.225998 -0.10473,0.44924 -0.10198,0.223242 -0.30593,0.446484 -0.20395,0.223242 -0.77997,0.691775 -0.31694,0.25907 -0.50436,0.468532 -0.18741,0.206706 -0.27009,0.399631 h 2.02571 v 0.421679 z"
         id="path3979" /><path
         d="m 139.27978,99.106178 v -4.090014 h 0.49609 v 4.090014 z"
         id="path3981" /><path
         d="m 142.92331,97.601362 q 0,1.559938 -1.09692,1.559938 -0.339,0 -0.565,-0.121267 -0.22324,-0.124024 -0.3638,-0.396875 h -0.006 q 0,0.08544 -0.011,0.261827 -0.011,0.173633 -0.0165,0.201193 h -0.47956 q 0.0165,-0.148828 0.0165,-0.614604 v -3.47541 h 0.49609 v 1.165819 q 0,0.179145 -0.011,0.42168 h 0.011 q 0.13781,-0.286632 0.3638,-0.410655 0.22876,-0.124024 0.565,-0.124024 0.56499,0 0.82958,0.380339 0.26734,0.380338 0.26734,1.152039 z m -0.5209,0.01654 q 0,-0.625629 -0.16537,-0.895724 -0.16536,-0.270095 -0.53743,-0.270095 -0.41892,0 -0.61185,0.286631 -0.19017,0.286632 -0.19017,0.909505 0,0.587044 0.18742,0.868163 0.18741,0.278364 0.60909,0.278364 0.37482,0 0.54019,-0.275608 0.16812,-0.278363 0.16812,-0.901236 z"
         id="path3983" /><path
         d="m 145.64631,98.282112 q 0,0.421679 -0.31971,0.650434 -0.31694,0.228754 -0.89021,0.228754 -0.55673,0 -0.85989,-0.181901 -0.30042,-0.184657 -0.39137,-0.573264 l 0.43822,-0.08544 q 0.0634,0.239779 0.26183,0.352778 0.19843,0.110243 0.55121,0.110243 0.37758,0 0.55122,-0.115756 0.17639,-0.115755 0.17639,-0.347265 0,-0.176389 -0.12127,-0.286632 -0.12127,-0.110243 -0.39136,-0.181901 l -0.35554,-0.09371 q -0.42719,-0.110243 -0.60909,-0.214974 -0.17915,-0.107487 -0.28112,-0.259071 -0.10197,-0.151584 -0.10197,-0.37207 0,-0.407899 0.28938,-0.620117 0.29215,-0.214973 0.84887,-0.214973 0.49334,0 0.78273,0.173632 0.29214,0.173633 0.36931,0.556727 l -0.44648,0.05512 q -0.0413,-0.198438 -0.22324,-0.303168 -0.17915,-0.107487 -0.48232,-0.107487 -0.33624,0 -0.49609,0.101974 -0.15985,0.101975 -0.15985,0.308681 0,0.126779 0.0661,0.209461 0.0661,0.08268 0.19569,0.14056 0.12953,0.05788 0.5457,0.159853 0.39412,0.09922 0.56775,0.184657 0.17363,0.08268 0.27285,0.184657 0.10198,0.101974 0.1571,0.237022 0.0551,0.132291 0.0551,0.303168 z"
         id="path3985" /></g><g
       aria-label="START"
       id="text3216"
       style="font-size:4.23333px;line-height:1.25;letter-spacing:-0.264583px;word-spacing:0px;fill:#4d4d4d;stroke-width:0.264583"><path
         d="m 35.44461,103.0646 q 0,0.40307 -0.31626,0.62425 -0.314192,0.22117 -0.886766,0.22117 -1.064534,0 -1.234033,-0.74 l 0.382406,-0.0765 q 0.06614,0.26251 0.281119,0.38654 0.214974,0.12195 0.584977,0.12195 0.382405,0 0.589111,-0.13022 0.208772,-0.13229 0.208772,-0.38654 0,-0.14263 -0.06614,-0.23151 -0.06408,-0.0889 -0.181901,-0.14676 -0.117822,-0.0579 -0.28112,-0.0971 -0.163297,-0.0393 -0.361735,-0.0847 -0.345198,-0.0765 -0.525032,-0.15297 -0.177766,-0.0765 -0.281119,-0.16949 -0.103353,-0.0951 -0.159163,-0.22118 -0.05374,-0.12609 -0.05374,-0.28939 0,-0.37413 0.285254,-0.57671 0.28732,-0.20257 0.820621,-0.20257 0.496093,0 0.758609,0.15297 0.262516,0.15089 0.367936,0.51676 l -0.388606,0.0682 q -0.06408,-0.23151 -0.243913,-0.33486 -0.179834,-0.10542 -0.49816,-0.10542 -0.349333,0 -0.533301,0.11575 -0.183968,0.11576 -0.183968,0.3452 0,0.13436 0.07028,0.22324 0.07235,0.0868 0.206706,0.14883 0.134358,0.06 0.535367,0.14883 0.134359,0.031 0.26665,0.0641 0.134359,0.031 0.256315,0.0765 0.121957,0.0434 0.227376,0.10335 0.107487,0.06 0.186035,0.14676 0.07855,0.0868 0.121957,0.20464 0.04547,0.11782 0.04547,0.27699 z"
         id="path3988" /><path
         d="m 36.86261,101.27866 v 2.59002 h -0.392741 v -2.59002 h -1.000454 v -0.32246 h 2.39365 v 0.32246 z"
         id="path3990" /><path
         d="m 39.793695,103.86868 -0.332796,-0.85162 h -1.32705 l -0.334863,0.85162 h -0.409277 l 1.188557,-2.91248 h 0.448551 l 1.169954,2.91248 z m -0.996321,-2.61482 -0.0186,0.0579 q -0.05168,0.17156 -0.152962,0.44028 l -0.37207,0.95704 h 1.089338 l -0.374137,-0.96118 q -0.05788,-0.14262 -0.115755,-0.32246 z"
         id="path3992" /><path
         d="m 42.346509,103.86868 -0.756543,-1.20922 h -0.907437 v 1.20922 h -0.394808 v -2.91248 h 1.370458 q 0.491959,0 0.758609,0.22118 0.268718,0.2191 0.268718,0.61184 0,0.32453 -0.190169,0.54571 -0.188102,0.22117 -0.520898,0.27905 l 0.826822,1.2547 z m -0.05788,-2.07532 q 0,-0.25425 -0.173633,-0.38654 -0.171565,-0.13436 -0.496093,-0.13436 h -0.936376 v 1.07487 h 0.952912 q 0.312126,0 0.481624,-0.14469 0.171566,-0.14676 0.171566,-0.40928 z"
         id="path3994" /><path
         d="m 44.144847,101.27866 v 2.59002 h -0.392741 v -2.59002 h -1.000455 v -0.32246 h 2.393651 v 0.32246 z"
         id="path3996" /></g><g
       aria-label="CURRENT"
       id="text3220"
       style="font-size:4.23333px;line-height:1.25;letter-spacing:-0.264583px;word-spacing:0px;fill:#4d4d4d;stroke-width:0.264583"><path
         d="m 81.548256,101.23525 q -0.483691,0 -0.752408,0.31213 -0.268717,0.31006 -0.268717,0.85163 0,0.53536 0.279052,0.86196 0.28112,0.32453 0.75861,0.32453 0.611848,0 0.919839,-0.60565 l 0.322461,0.16123 q -0.179834,0.3762 -0.506429,0.57257 -0.324527,0.19637 -0.754475,0.19637 -0.440283,0 -0.762743,-0.1819 -0.320394,-0.18396 -0.489893,-0.52296 -0.167431,-0.34107 -0.167431,-0.80615 0,-0.6966 0.376204,-1.09141 0.376204,-0.39481 1.041796,-0.39481 0.465087,0 0.777213,0.1819 0.312125,0.18191 0.458886,0.53951 l -0.374137,0.12402 q -0.101286,-0.25425 -0.326595,-0.38861 -0.223242,-0.13436 -0.531233,-0.13436 z"
         id="path3999" /><path
         d="m 84.214758,103.91002 q -0.357601,0 -0.624251,-0.13022 -0.26665,-0.13023 -0.413411,-0.37827 -0.146761,-0.24805 -0.146761,-0.59118 v -1.85415 h 0.394808 v 1.82108 q 0,0.39894 0.202571,0.60564 0.202571,0.20671 0.584977,0.20671 0.39274,0 0.609781,-0.21291 0.219108,-0.21497 0.219108,-0.62631 v -1.79421 h 0.392741 v 1.81694 q 0,0.35347 -0.150896,0.60978 -0.148828,0.25632 -0.423746,0.39275 -0.272851,0.13435 -0.644921,0.13435 z"
         id="path4001" /><path
         d="m 87.902385,103.86868 -0.756542,-1.20922 h -0.907438 v 1.20922 h -0.394807 v -2.91248 h 1.370457 q 0.49196,0 0.75861,0.22118 0.268717,0.2191 0.268717,0.61184 0,0.32453 -0.190169,0.54571 -0.188102,0.22117 -0.520898,0.27905 l 0.826822,1.2547 z m -0.05788,-2.07532 q 0,-0.25425 -0.173632,-0.38654 -0.171566,-0.13436 -0.496094,-0.13436 h -0.936376 v 1.07487 h 0.952913 q 0.312125,0 0.481624,-0.14469 0.171565,-0.14676 0.171565,-0.40928 z"
         id="path4003" /><path
         d="m 90.694977,103.86868 -0.756542,-1.20922 h -0.907438 v 1.20922 H 88.63619 v -2.91248 h 1.370457 q 0.49196,0 0.75861,0.22118 0.268717,0.2191 0.268717,0.61184 0,0.32453 -0.190169,0.54571 -0.188102,0.22117 -0.520898,0.27905 l 0.826822,1.2547 z m -0.05788,-2.07532 q 0,-0.25425 -0.173632,-0.38654 -0.171566,-0.13436 -0.496094,-0.13436 h -0.936376 v 1.07487 h 0.952913 q 0.312125,0 0.481624,-0.14469 0.171565,-0.14676 0.171565,-0.40928 z"
         id="path4005" /><path
         d="m 91.428782,103.86868 v -2.91248 h 2.209682 v 0.32246 h -1.814875 v 0.93431 h 1.690852 v 0.31833 h -1.690852 v 1.01492 h 1.899624 v 0.32246 z"
         id="path4007" /><path
         d="m 95.877086,103.86868 -1.55856,-2.48046 0.01033,0.2005 0.01033,0.3452 v 1.93476 h -0.351399 v -2.91248 h 0.458886 l 1.575097,2.497 q -0.02481,-0.40514 -0.02481,-0.58704 v -1.90996 h 0.355533 v 2.91248 z"
         id="path4009" /><path
         d="m 97.921405,101.27866 v 2.59002 h -0.392741 v -2.59002 h -1.000455 v -0.32246 h 2.39365 v 0.32246 z"
         id="path4011" /></g><g
       aria-label="CHANGE (-17.8%)"
       id="text3224"
       style="font-size:4.23333px;line-height:1.25;letter-spacing:-0.264583px;word-spacing:0px;fill:#4d4d4d;stroke-width:0.264583"><path
         d="m 123.88154,101.23525 q -0.48369,0 -0.75241,0.31213 -0.26872,0.31006 -0.26872,0.85163 0,0.53536 0.27906,0.86196 0.28112,0.32453 0.7586,0.32453 0.61185,0 0.91984,-0.60565 l 0.32247,0.16123 q -0.17984,0.3762 -0.50643,0.57257 -0.32453,0.19637 -0.75448,0.19637 -0.44028,0 -0.76274,-0.1819 -0.3204,-0.18396 -0.48989,-0.52296 -0.16744,-0.34107 -0.16744,-0.80615 0,-0.6966 0.37621,-1.09141 0.3762,-0.39481 1.04179,-0.39481 0.46509,0 0.77722,0.1819 0.31212,0.18191 0.45888,0.53951 l -0.37413,0.12402 q -0.10129,-0.25425 -0.3266,-0.38861 -0.22324,-0.13436 -0.53123,-0.13436 z"
         id="path4014" /><path
         d="m 127.35419,103.86868 v -1.34978 h -1.57509 v 1.34978 h -0.39481 v -2.91248 h 0.39481 v 1.23197 h 1.57509 v -1.23197 h 0.39481 v 2.91248 z"
         id="path4016" /><path
         d="m 130.24187,103.86868 -0.3328,-0.85162 h -1.32705 l -0.33486,0.85162 h -0.40928 l 1.18856,-2.91248 h 0.44855 l 1.16995,2.91248 z m -0.99632,-2.61482 -0.0186,0.0579 q -0.0517,0.17156 -0.15296,0.44028 l -0.37207,0.95704 h 1.08934 l -0.37414,-0.96118 q -0.0579,-0.14262 -0.11575,-0.32246 z"
         id="path4018" /><path
         d="m 132.62518,103.86868 -1.55856,-2.48046 0.0103,0.2005 0.0103,0.3452 v 1.93476 h -0.35139 v -2.91248 h 0.45888 l 1.5751,2.497 q -0.0248,-0.40514 -0.0248,-0.58704 v -1.90996 h 0.35554 v 2.91248 z"
         id="path4020" /><path
         d="m 133.39413,102.39901 q 0,-0.709 0.38034,-1.09761 0.38034,-0.38861 1.06866,-0.38861 0.4837,0 0.78549,0.1633 0.30179,0.1633 0.46508,0.52297 l -0.3762,0.11162 q -0.12402,-0.24805 -0.34313,-0.36174 -0.21704,-0.11369 -0.54157,-0.11369 -0.50436,0 -0.77101,0.30593 -0.26665,0.30386 -0.26665,0.85783 0,0.5519 0.28318,0.87229 0.28319,0.31833 0.78342,0.31833 0.28525,0 0.53123,-0.0868 0.24805,-0.0868 0.40101,-0.23564 v -0.52503 h -0.87023 v -0.33073 h 1.23403 v 1.00459 q -0.23151,0.23564 -0.56844,0.36587 -0.33486,0.12815 -0.7276,0.12815 -0.45682,0 -0.78755,-0.1819 -0.33073,-0.1819 -0.50643,-0.52296 -0.17363,-0.34313 -0.17363,-0.80615 z"
         id="path4022" /><path
         d="m 136.55672,103.86868 v -2.91248 h 2.20969 v 0.32246 h -1.81488 v 0.93431 h 1.69085 v 0.31833 h -1.69085 v 1.01492 h 1.89963 v 0.32246 z"
         id="path4024" /><path
         d="m 139.94256,102.76901 q 0,-0.59738 0.18604,-1.0728 0.1881,-0.47543 0.5767,-0.89504 h 0.35967 q -0.38654,0.42995 -0.56844,0.91364 -0.17983,0.48369 -0.17983,1.05833 0,0.57258 0.17776,1.0542 0.17984,0.48163 0.57051,0.91777 h -0.35967 q -0.39067,-0.42167 -0.5767,-0.8971 -0.18604,-0.47749 -0.18604,-1.07073 z"
         id="path4026" /><path
         d="m 141.0133,102.90957 v -0.33073 h 1.03352 v 0.33073 z"
         id="path4028" /><path
         d="m 142.2928,103.86868 v -0.31626 h 0.74208 v -2.24068 l -0.65733,0.46922 v -0.3514 l 0.68833,-0.47336 h 0.34313 v 2.59622 h 0.709 v 0.31626 z"
         id="path4030" /><path
         d="m 146.20161,101.25799 q -0.44649,0.68213 -0.63046,1.06867 -0.18396,0.38654 -0.27698,0.76274 -0.091,0.37621 -0.091,0.77928 h -0.38861 q 0,-0.5581 0.23565,-1.17408 0.23771,-0.61805 0.79168,-1.42214 h -1.56476 v -0.31626 h 1.92443 z"
         id="path4032" /><path
         d="M 146.53647,103.86868 V 103.416 h 0.40307 v 0.45268 z"
         id="path4034" /><path
         d="m 149.23191,103.05633 q 0,0.40308 -0.25632,0.62838 -0.25631,0.22531 -0.73587,0.22531 -0.46715,0 -0.73174,-0.22117 -0.26251,-0.22118 -0.26251,-0.62839 0,-0.28525 0.1633,-0.47955 0.16329,-0.19431 0.41754,-0.23565 v -0.008 q -0.23771,-0.0558 -0.3762,-0.24184 -0.13643,-0.18604 -0.13643,-0.43615 0,-0.3328 0.24805,-0.5395 0.25011,-0.20671 0.66972,-0.20671 0.42995,0 0.678,0.20257 0.25011,0.20258 0.25011,0.54777 0,0.25012 -0.13849,0.43615 -0.13849,0.18604 -0.37827,0.23358 v 0.008 q 0.27905,0.0455 0.43408,0.23771 0.15503,0.19017 0.15503,0.47749 z m -0.45889,-1.37252 q 0,-0.49403 -0.54157,-0.49403 -0.26251,0 -0.401,0.12402 -0.13643,0.12403 -0.13643,0.37001 0,0.25011 0.14056,0.3824 0.14263,0.13022 0.40101,0.13022 0.26251,0 0.39894,-0.11988 0.13849,-0.12196 0.13849,-0.39274 z m 0.0724,1.33738 q 0,-0.27078 -0.16123,-0.40721 -0.16123,-0.13849 -0.45269,-0.13849 -0.28318,0 -0.44235,0.14883 -0.15916,0.14676 -0.15916,0.40514 0,0.60151 0.61392,0.60151 0.30385,0 0.45268,-0.14469 0.14883,-0.14676 0.14883,-0.46509 z"
         id="path4036" /><path
         d="m 152.76451,102.97158 q 0,0.44442 -0.16743,0.6842 -0.16744,0.23771 -0.49403,0.23771 -0.32246,0 -0.48783,-0.23151 -0.16329,-0.23358 -0.16329,-0.6904 0,-0.47129 0.15709,-0.70073 0.15917,-0.23151 0.5023,-0.23151 0.339,0 0.49609,0.23771 0.1571,0.23564 0.1571,0.69453 z m -2.52388,0.8971 h -0.32039 l 1.90582,-2.91248 h 0.32453 z m -0.27492,-2.93728 q 0.32867,0 0.48783,0.23151 0.15916,0.23151 0.15916,0.69039 0,0.44855 -0.16536,0.6904 -0.1633,0.24185 -0.48989,0.24185 -0.3266,0 -0.49196,-0.23978 -0.1633,-0.23978 -0.1633,-0.69247 0,-0.46095 0.15916,-0.69039 0.15917,-0.23151 0.50436,-0.23151 z m 2.49287,2.04018 q 0,-0.37 -0.0806,-0.53537 -0.0786,-0.16743 -0.26665,-0.16743 -0.1881,0 -0.27285,0.1633 -0.0827,0.1633 -0.0827,0.5395 0,0.35347 0.0806,0.52503 0.0827,0.1695 0.27078,0.1695 0.18191,0 0.26665,-0.17156 0.0848,-0.17364 0.0848,-0.52297 z m -2.14973,-1.11828 q 0,-0.3638 -0.0786,-0.53123 -0.0786,-0.16743 -0.26459,-0.16743 -0.1943,0 -0.27698,0.16536 -0.0827,0.1633 -0.0827,0.5333 0,0.3576 0.0827,0.52917 0.0827,0.1695 0.27285,0.1695 0.17983,0 0.26252,-0.17363 0.0848,-0.17364 0.0848,-0.52504 z"
         id="path4038" /><path
         d="m 153.79804,102.77728 q 0,0.59738 -0.18811,1.0728 -0.18603,0.47542 -0.57464,0.89503 h -0.35967 q 0.38861,-0.43408 0.56844,-0.91363 0.17984,-0.48163 0.17984,-1.05834 0,-0.57671 -0.1819,-1.05833 -0.17984,-0.48162 -0.56638,-0.91364 h 0.35967 q 0.39068,0.42168 0.57671,0.89917 0.18604,0.47542 0.18604,1.06867 z"
         id="path4040" /></g><path
       style="fill:none;stroke:#e6e6e6;stroke-width:0.261931px;stroke-linecap:butt;stroke-linejoin:miter;stroke-opacity:1"
       d="M 26.246339,90.500765 H 157.58872"
       id="path3289" /><path
       style="fill:none;stroke:#e6e6e6;stroke-width:0.261931px;stroke-linecap:butt;stroke-linejoin:miter;stroke-opacity:1"
       d="M 26.246339,107.96328 H 157.58872"
       id="path3291" /><g
       aria-label="158"
       id="text3709"
       style="font-weight:bold;font-size:4.23333px;line-height:1.25;-inkscape-font-specification:'sans-serif Bold';letter-spacing:-0.0264583px;word-spacing:0px;fill:#ffffff;stroke-width:0.264583"><path
         d="m 146.3236,157.84354 v -0.43202 h 0.7214 v -1.98644 l -0.69867,0.43615 v -0.45682 l 0.72967,-0.47335 h 0.54984 v 2.48046 h 0.66766 v 0.43202 z"
         id="path4219" /><path
         d="m 150.62142,156.87409 q 0,0.46302 -0.28939,0.73794 -0.28732,0.27285 -0.78962,0.27285 -0.43821,0 -0.70279,-0.19637 -0.26252,-0.19844 -0.32453,-0.57258 l 0.58084,-0.0475 q 0.0455,0.18604 0.16123,0.27078 0.11576,0.0848 0.29146,0.0848 0.21704,0 0.34519,-0.13849 0.13023,-0.13849 0.13023,-0.39894 0,-0.22944 -0.12196,-0.36587 -0.12195,-0.13849 -0.34106,-0.13849 -0.24185,0 -0.39481,0.1881 h -0.56637 l 0.10128,-1.63917 h 1.7508 v 0.43201 h -1.2237 l -0.0475,0.73587 q 0.21084,-0.18603 0.5271,-0.18603 0.41548,0 0.66352,0.25838 0.25012,0.25838 0.25012,0.7028 z"
         id="path4221" /><path
         d="m 152.93693,157.02292 q 0,0.40927 -0.27078,0.63665 -0.27078,0.22531 -0.77308,0.22531 -0.49816,0 -0.77308,-0.22531 -0.27285,-0.22531 -0.27285,-0.63252 0,-0.27905 0.16123,-0.46922 0.16123,-0.19224 0.43202,-0.23771 v -0.008 q -0.23565,-0.0517 -0.38034,-0.23358 -0.1447,-0.1819 -0.1447,-0.41961 0,-0.3576 0.25218,-0.56431 0.25425,-0.2067 0.71727,-0.2067 0.47336,0 0.72554,0.20257 0.25425,0.2005 0.25425,0.57257 0,0.23771 -0.1447,0.41755 -0.14262,0.17983 -0.38447,0.22737 v 0.008 q 0.28112,0.0455 0.44028,0.23151 0.16123,0.18397 0.16123,0.47543 z m -0.66972,-1.32912 q 0,-0.20671 -0.0951,-0.30179 -0.0951,-0.0971 -0.28732,-0.0971 -0.3762,0 -0.3762,0.39894 0,0.41754 0.38034,0.41754 0.19017,0 0.28318,-0.0971 0.0951,-0.0972 0.0951,-0.32039 z m 0.0682,1.28157 q 0,-0.45682 -0.45475,-0.45682 -0.21084,0 -0.32453,0.11989 -0.11162,0.11989 -0.11162,0.3452 0,0.25632 0.11162,0.37414 0.11162,0.11782 0.34106,0.11782 0.22531,0 0.33073,-0.11782 0.10749,-0.11782 0.10749,-0.38241 z"
         id="path4223" /></g></g></svg>
