<?xml version="1.0" encoding="UTF-8" standalone="no"?>
<!-- Created with Inkscape (http://www.inkscape.org/) -->

<svg
   width="74.348213mm"
   height="27.392147mm"
   viewBox="0 0 74.348213 27.392147"
   version="1.1"
   id="svg2855"
   xmlns="http://www.w3.org/2000/svg"
   xmlns:svg="http://www.w3.org/2000/svg">
  <defs
     id="defs2852" />
  <g
     id="g83184"
     transform="matrix(0.4739423,0,0,0.4739423,13.308256,-9.8460697)">
    <path
       id="ellipse420179"
       style="display:inline;fill:#001219;fill-opacity:1;stroke:none;stroke-width:0;paint-order:markers fill stroke;stop-color:#000000"
       d="M 20.282826,20.789948 A 18.747192,29.388186 15 0 0 1.5227328,34.013955 32.626982,20.81327 34.250455 0 1 10.11859,38.702028 32.626982,20.81327 34.250455 0 1 27.77281,66.969053 18.747192,29.388186 15 0 0 33.321823,54.425104 18.747192,29.388186 15 0 0 22.819622,21.186321 18.747192,29.388186 15 0 0 20.282826,20.789948 Z" />
    <ellipse
       style="display:inline;fill:#005f73;fill-opacity:1;stroke:none;stroke-width:0;paint-order:markers fill stroke;stop-color:#000000"
       id="ellipse420183"
       cx="-47.109241"
       cy="30.145773"
       rx="18.747192"
       ry="29.388187"
       transform="rotate(-55.749545)" />
    <g
       aria-label="Hellen"
       id="text420187"
       style="font-size:20.8139px;line-height:1.25;font-family:'Youth line - Personal Use';-inkscape-font-specification:'Youth line - Personal Use';display:inline;fill:#001219;stroke-width:0.2">
      <path
         d="m 50.453843,53.968304 q -0.203261,0 -0.345544,-0.07114 -0.640271,-0.325217 -0.640271,-1.717553 0,-0.0813 0.01016,-0.772391 0.02033,-0.691087 0.528478,-3.099726 0.752065,-3.465596 1.900488,-7.622278 -1.087445,-0.13212 -2.205379,-0.13212 -2.500107,0 -6.75842,0.792717 -0.924836,0.162609 -1.809021,0.304891 -2.205379,8.038963 -2.205379,10.53907 0,0.874021 0.213424,1.087445 0.04065,0.04065 0.111794,0.04065 0.05082,0 0.121956,-0.02033 0.07114,-0.02033 0.121957,-0.02033 0.07114,0 0.162608,0.06098 0.152446,0.09147 0.152446,0.264239 0,0.365869 -0.548804,0.365869 -0.203261,0 -0.345544,-0.07114 -0.640271,-0.325217 -0.640271,-1.717553 0,-0.0813 0.01016,-0.772391 0.02033,-0.691087 0.518315,-3.109889 0.650434,-2.97777 1.626086,-6.544996 -1.432988,0.213423 -2.632227,0.223586 -0.193097,0 -0.274402,-0.0813 -0.121956,-0.111793 -0.121956,-0.274402 0,-0.213424 0.376032,-0.376032 0.325217,-0.142283 0.406522,-0.223587 0.0813,-0.0813 0.213424,-0.09147 0.132119,0 0.233749,0.10163 0.101631,0.10163 0.101631,0.23375 v 0.02033 q 0.884184,-0.07114 1.880162,-0.213424 l 0.508151,-1.869999 q 1.087445,-3.902606 1.778532,-6.870213 0.518315,-2.286683 0.518315,-3.282661 0,-0.294728 -0.04065,-0.376032 -0.03049,-0.0813 -0.03049,-0.142283 0,-0.06098 0.03049,-0.152445 0.07114,-0.172772 0.294728,-0.172772 0.06098,0 0.142282,0.04065 0.254076,0.111794 0.254076,0.904511 0,0.985814 -0.528478,3.31315 -0.528478,2.327335 -1.798857,6.910865 l -0.426848,1.585434 1.514293,-0.254076 q 1.57527,-0.284565 3.282661,-0.518315 2.022444,-0.274402 3.699345,-0.274402 1.199239,0 2.266357,0.152445 l 0.23375,-0.853695 q 1.087445,-3.912769 1.788695,-6.880376 0.508152,-2.307009 0.508152,-3.242009 0,-0.325217 -0.05082,-0.426847 -0.02033,-0.07114 -0.02033,-0.13212 0,-0.06098 0.03049,-0.152445 0.07114,-0.172772 0.294728,-0.172772 0.06098,0 0.152445,0.04065 0.243913,0.111794 0.243913,0.904511 0,0.985814 -0.528478,3.31315 -0.609782,2.713531 -2.012281,7.703582 1.80902,0.345543 3.221683,1.178912 0.162608,0.09147 0.162608,0.284565 0,0.0813 -0.04065,0.162609 -0.10163,0.162608 -0.274402,0.162608 -0.09147,0 -0.172772,-0.05082 -1.432988,-0.813043 -3.059074,-1.107771 -1.168749,4.166845 -1.920814,7.642604 -0.518315,2.500107 -0.518315,3.750161 0,0.874021 0.213424,1.087445 0.04065,0.04065 0.111793,0.04065 0.05082,0 0.121957,-0.02033 0.07114,-0.02033 0.121956,-0.02033 0.07114,0 0.172772,0.06098 0.142283,0.0813 0.142283,0.264239 0,0.365869 -0.548804,0.365869 z"
         id="path97681" />
      <path
         d="m 58.187914,46.376516 q -1.006141,0 -1.554945,-0.985815 -0.345543,-0.670761 -0.345543,-1.483803 0,-1.280543 0.721575,-2.428966 0.548804,-0.813043 1.422826,-1.006141 0.162608,-0.03049 0.304891,-0.03049 0.345543,0 0.599619,0.172771 0.355706,0.294729 0.355706,0.772391 0,0.345544 -0.203261,0.762228 -0.233749,0.457337 -0.691086,0.752065 -0.447174,0.294728 -1.067119,0.304891 -0.33538,0 -0.711413,-0.111793 -0.0813,0.43701 -0.0813,0.813043 0,0.691086 0.264239,1.168749 0.33538,0.630108 0.985815,0.650434 0.609782,0 1.402499,-0.630108 1.148423,-0.90451 2.459455,-3.262335 0.10163,-0.162609 0.284565,-0.162609 0.0813,0 0.162608,0.04065 0.162609,0.101631 0.162609,0.284566 0,0.0813 -0.04065,0.162608 -1.199239,2.154564 -2.378151,3.231846 -1.087445,0.985815 -2.052933,0.985815 z m -0.416685,-3.821302 q 0.294728,0 0.619945,-0.162609 0.335381,-0.162609 0.518315,-0.548804 0.13212,-0.243913 0.13212,-0.477663 0,-0.274402 -0.294728,-0.274402 -0.325217,0 -0.691087,0.23375 -0.497989,0.325217 -0.843532,1.148423 0.304891,0.08131 0.558967,0.08131 z"
         id="path97683" />
      <path
         d="m 61.897422,48.571732 q -0.162609,0 -0.254076,-0.08131 -0.172772,-0.152445 -0.172772,-1.463477 0,-2.30701 0.752065,-5.701464 0.945162,-4.278639 2.357824,-8.120267 0.853696,-2.317172 1.534619,-3.51641 0.193098,-0.36587 0.416685,-0.36587 0.121956,0 0.233749,0.0813 0.111794,0.0813 0.111794,0.304891 0,0.05082 -0.03049,0.264239 -0.07114,0.426847 -0.07114,0.609782 0,0.172771 0.03049,0.325217 v 0.07114 q 0,0.09147 -0.06098,0.172772 -0.09147,0.132119 -0.264239,0.132119 -0.254076,0 -0.315054,-0.254076 v -0.01016 q -1.300869,2.87614 -2.561085,7.388528 -0.355706,1.27038 -0.741902,3.018422 -0.741902,3.374129 -0.741902,5.559182 0,0.640271 0.06098,1.219564 v 0.03049 q 0,0.111794 -0.07114,0.213424 -0.0813,0.10163 -0.213423,0.121957 z"
         id="path97685" />
      <path
         d="m 63.869052,48.571732 q -0.162609,0 -0.254076,-0.08131 -0.172772,-0.152445 -0.172772,-1.463477 0,-2.30701 0.752065,-5.701464 0.945162,-4.278639 2.357825,-8.120267 0.853695,-2.317172 1.534618,-3.51641 0.193098,-0.36587 0.416685,-0.36587 0.121956,0 0.23375,0.0813 0.111793,0.0813 0.111793,0.304891 0,0.05082 -0.03049,0.264239 -0.07114,0.426847 -0.07114,0.609782 0,0.172771 0.03049,0.325217 v 0.07114 q 0,0.09147 -0.06098,0.172772 -0.09147,0.132119 -0.264239,0.132119 -0.254075,0 -0.315054,-0.254076 v -0.01016 q -1.300868,2.87614 -2.561085,7.388528 -0.355706,1.27038 -0.741902,3.018422 -0.741901,3.374129 -0.741901,5.559182 0,0.640271 0.06098,1.219564 v 0.03049 q 0,0.111794 -0.07114,0.213424 -0.08131,0.10163 -0.213424,0.121957 z"
         id="path97687" />
      <path
         d="m 67.08057,46.376516 q -1.006141,0 -1.554945,-0.985815 -0.345543,-0.670761 -0.345543,-1.483803 0,-1.280543 0.721576,-2.428966 0.548804,-0.813043 1.422825,-1.006141 0.162608,-0.03049 0.304891,-0.03049 0.345543,0 0.599619,0.172771 0.355706,0.294729 0.355706,0.772391 0,0.345544 -0.20326,0.762228 -0.23375,0.457337 -0.691087,0.752065 -0.447173,0.294728 -1.067119,0.304891 -0.33538,0 -0.711412,-0.111793 -0.08131,0.43701 -0.08131,0.813043 0,0.691086 0.264239,1.168749 0.335381,0.630108 0.985815,0.650434 0.609782,0 1.402499,-0.630108 1.148423,-0.90451 2.459455,-3.262335 0.10163,-0.162609 0.284565,-0.162609 0.0813,0 0.162609,0.04065 0.162608,0.101631 0.162608,0.284566 0,0.0813 -0.04065,0.162608 -1.199238,2.154564 -2.378151,3.231846 -1.087444,0.985815 -2.052933,0.985815 z m -0.416685,-3.821302 q 0.294729,0 0.619946,-0.162609 0.33538,-0.162609 0.518315,-0.548804 0.132119,-0.243913 0.132119,-0.477663 0,-0.274402 -0.294728,-0.274402 -0.325217,0 -0.691086,0.23375 -0.497989,0.325217 -0.843533,1.148423 0.304892,0.08131 0.558967,0.08131 z"
         id="path97689" />
      <path
         d="m 70.739265,46.437494 q -0.325217,0 -0.325217,-0.345544 0.07114,-0.802879 0.254075,-2.124074 0.569131,-4.278639 1.16875,-4.278639 0.09147,0 0.182934,0.05082 0.142283,0.111794 0.142283,0.264239 0,0.101631 -0.05082,0.193098 -0.23375,0.437011 -0.538641,2.124075 1.321195,-2.337499 2.225705,-2.398477 0.254076,0 0.447173,0.132119 0.487826,0.345544 0.518315,1.788695 v 1.158586 q 0,2.215542 0.355707,2.215542 0.142282,0 0.467499,-0.274402 0.843532,-0.721575 2.388314,-3.120052 0.111794,-0.142283 0.264239,-0.142283 0.10163,0 0.193098,0.05082 0.142282,0.09147 0.142282,0.254075 0,0.101631 -0.05082,0.193098 -1.311032,2.042771 -2.154564,2.926955 -0.741901,0.762228 -1.260216,0.762228 -0.101631,0 -0.203261,-0.03049 -0.579293,-0.203261 -0.70125,-1.097608 -0.09147,-0.711413 -0.10163,-1.636249 l 0.01016,-0.477663 q 0,-0.90451 -0.02033,-1.219565 -0.05082,-0.548804 -0.203261,-0.782553 l -0.05082,-0.01016 q -0.4675,0 -1.443151,1.575271 -0.985815,1.666738 -1.178913,2.611901 -0.05082,0.09147 -0.152445,1.341521 -0.01016,0.132119 -0.10163,0.213423 -0.09147,0.08131 -0.223587,0.08131 z"
         id="path97691" />
    </g>
    <g
       aria-label="Zziwa"
       id="text420191"
       style="font-size:20.8139px;line-height:1.25;font-family:'Youth line - Personal Use';-inkscape-font-specification:'Youth line - Personal Use';display:inline;fill:#001219;stroke-width:0.186926">
      <path
         d="m 87.211918,54.283574 q -3.343639,0 -4.827442,-1.03663 -0.904511,-0.630108 -0.904511,-1.687064 v -0.09147 q 0.01016,-0.670761 0.609782,-1.60576 0.497989,-0.741902 1.829347,-1.991955 1.331358,-1.260217 3.201357,-2.916792 2.052933,-1.809021 4.166845,-3.770487 -1.087445,0.23375 -2.134238,0.518315 -2.256194,0.609782 -3.404617,0.630108 -0.274402,0 -0.355707,-0.233749 -0.02033,-0.06098 -0.02033,-0.111794 0,-0.193098 0.264239,-0.355706 0.13212,-0.0813 0.23375,-0.182935 0.09147,-0.152445 0.254076,-0.152445 0.101631,0 0.193098,0.05082 0.152445,0.10163 0.152445,0.284565 1.148424,-0.182935 2.510271,-0.558967 1.504129,-0.426848 3.150541,-0.691087 6.575485,-6.280757 6.575485,-9.146733 0,-1.260217 -1.47364,-1.880162 -2.357825,-0.90451 -6.016518,-0.90451 -3.089564,0 -5.172986,0.609782 -1.473641,0.426848 -1.829347,1.026467 -0.07114,0.121956 -0.07114,0.254076 0,0.518315 0.945162,1.189075 0.142283,0.10163 0.142283,0.274402 0,0.09147 -0.06098,0.172772 -0.101631,0.142282 -0.284565,0.142282 -0.08131,0 -0.172772,-0.06098 -1.006141,-0.741902 -1.158586,-1.321195 -0.06098,-0.223587 -0.06098,-0.416684 0,-1.189076 2.367987,-1.890325 2.215542,-0.630109 5.406736,-0.630109 3.760324,0 6.209616,0.955326 1.890325,0.792717 1.890325,2.550922 -0.02033,2.347662 -3.800976,6.504344 -1.128097,1.229727 -2.398477,2.469618 0.142282,-0.01016 0.426847,-0.01016 2.469618,0 4.105867,1.47364 0.101631,0.09147 0.101631,0.254076 0,0.111794 -0.09147,0.213424 -0.09147,0.10163 -0.243912,0.10163 -0.111794,0 -0.203261,-0.0813 -1.056956,-0.924836 -2.296847,-1.168749 -0.721575,-0.142283 -1.463477,-0.142283 -0.528478,0 -1.067119,0.07114 -2.469618,2.327335 -4.878258,4.45141 -1.778531,1.575271 -3.120052,2.825324 -1.331358,1.250054 -1.809021,1.951303 -0.508151,0.762228 -0.508151,1.361847 0,0.680924 0.650434,1.13826 1.341521,0.914674 4.441247,0.914674 1.687064,0 3.67902,-0.304891 2.825324,-0.4675 4.88842,-1.341521 2.07326,-0.874022 2.957444,-1.97163 0.101631,-0.121956 0.264239,-0.121956 0.101631,0 0.193098,0.06098 0.121956,0.111794 0.121956,0.264239 0,0.101631 -0.07114,0.193098 -0.975651,1.260217 -3.363965,2.235868 -2.154564,0.874021 -4.878258,1.321195 -1.991955,0.315054 -3.790813,0.315054 z"
         id="path97694" />
      <path
         d="m 101.08446,56.864985 q -0.38619,0 -0.66059,-0.10163 -0.985818,-0.376032 -1.311036,-1.666738 -0.111793,-0.4675 -0.111793,-0.985815 0,-0.945162 0.345543,-2.063096 0.4675,-1.432988 1.189076,-2.459455 0.72158,-1.026467 1.60576,-1.809021 0.88418,-0.782554 1.83951,-1.504129 0.60978,-0.4675 1.21956,-0.965489 -0.15244,-0.23375 -0.38619,-0.365869 -0.3862,-0.213424 -0.83337,-0.223587 -0.55897,0 -1.04679,0.121957 -0.41669,0.111793 -0.50816,0.152445 l -0.0203,0.01016 q -0.061,0.03049 -0.13212,0.03049 -0.18294,0 -0.28457,-0.172771 -0.0406,-0.08131 -0.0406,-0.162609 0,-0.172772 0.17277,-0.274402 1.33136,-0.782554 2.08343,-1.869999 0.67076,-0.965488 0.67076,-1.585434 0,-0.457336 -0.5793,-0.457336 -1.13826,0 -2.76434,1.524455 -0.10163,0.09147 -0.23375,0.09147 -0.13212,0 -0.22359,-0.101631 -0.0915,-0.10163 -0.0915,-0.23375 0,-0.121956 0.10163,-0.223586 1.00614,-0.965489 1.99196,-1.402499 0.67076,-0.294729 1.21956,-0.294729 1.00614,0 1.2094,0.833369 0.0203,0.111794 0.0203,0.284566 0,0.589456 -0.40652,1.321194 -0.50815,0.924837 -1.4025,1.758206 l 0.20326,-0.01016 q 0.63011,0 1.22973,0.325217 0.32522,0.193098 0.5488,0.497989 1.58544,-1.37201 2.55092,-3.0794 0.0915,-0.162609 0.28457,-0.162609 0.0813,0 0.16261,0.04065 0.16261,0.10163 0.16261,0.274402 0,0.0813 -0.0407,0.162609 -1.10777,1.930977 -2.81516,3.363965 0.0915,0.264239 0.13212,0.56913 0.0407,0.365869 0.0407,0.843532 0,1.03663 -0.26424,2.388314 -0.37604,1.94114 -1.1281,3.770487 -0.91467,2.103748 -1.92081,2.977769 -0.96549,0.833369 -1.77854,0.833369 z m 0,-0.640271 q 0.53864,-0.03049 1.15859,-0.518315 1.08744,-0.884184 1.94114,-2.906628 0.71141,-1.73788 1.07728,-3.597715 0.26424,-1.321195 0.26424,-2.30701 0,-0.599619 -0.0711,-0.955325 -0.53864,0.43701 -1.07728,0.853695 -1.39234,1.00614 -2.57125,2.235868 -1.16875,1.229727 -1.839511,3.221683 -0.294728,0.955325 -0.315054,1.626086 v 0.193097 q 0,0.538641 0.09147,0.874021 0.325215,1.280543 1.341515,1.280543 z"
         id="path97696" />
      <path
         d="m 108.87951,45.584014 q -0.20326,0 -0.37603,-0.09147 -0.47766,-0.274402 -0.55897,-1.067119 -0.0203,-0.23375 -0.0203,-0.487826 0.0305,-1.544781 0.8232,-3.455432 0.0813,-0.203261 0.3049,-0.203261 0.061,0 0.11179,0.02033 0.21342,0.09147 0.21342,0.304891 0,0.06098 -0.0305,0.121957 -0.77239,1.981792 -0.77239,3.31315 0.0102,0.894347 0.30489,0.894347 0.20326,0 0.76223,-0.4675 0.8537,-0.782554 2.03261,-2.662715 0.10163,-0.152446 0.26424,-0.152446 0.10163,0 0.1931,0.05082 0.15244,0.09147 0.15244,0.274402 0,0.09147 -0.0508,0.172772 -2.16473,3.435106 -3.35381,3.435106 z m 0.47767,-5.457551 q -0.0508,0 -0.0915,-0.02033 -0.23375,-0.07114 -0.23375,-0.315054 0,-0.132119 0.14228,-0.365869 l 0.0406,-0.0813 q 0.10163,-0.182935 0.29473,-0.182935 0.0711,0 0.15245,0.04065 0.17277,0.10163 0.17277,0.294728 0,0.07114 -0.0305,0.13212 -0.0305,0.06098 -0.13212,0.284565 -0.10163,0.213423 -0.31505,0.213423 z"
         id="path97698" />
      <path
         d="m 115.85136,45.360427 q -0.35571,-0.01016 -0.64027,-0.294728 -0.59962,-0.67076 -0.59962,-2.134237 v -0.23375 l -0.35571,0.589456 q -0.99598,1.524455 -1.50413,1.859836 -0.30489,0.20326 -0.52848,0.20326 -0.33538,0 -0.61994,-0.426847 -0.26424,-0.386196 -0.26424,-1.229728 0.0102,-0.77239 0.26424,-1.595596 0.32522,-1.056956 0.83337,-1.524456 0.10163,-0.07114 0.23375,-0.06098 0.13212,0 0.21342,0.10163 0.0813,0.101631 0.0813,0.213424 0,0.152445 -0.11179,0.254076 -0.3557,0.325217 -0.63011,1.229727 -0.23375,0.752065 -0.23375,1.453315 0,0.741901 0.25408,0.924836 0.39636,-0.10163 1.4025,-1.656575 0.91467,-1.453314 1.28054,-2.307009 l 0.0102,-0.03049 q 0.061,-0.213423 0.29473,-0.243912 0.0508,0 0.10163,0.02033 0.24392,0.07114 0.24392,0.294728 0,0.05082 -0.0203,0.10163 -0.29473,1.13826 -0.30489,1.981792 0,0.254076 0.0203,0.4675 0.0915,0.985815 0.40653,1.290706 0.0813,0.09147 0.19309,0.09147 0.0813,0 0.27441,-0.142282 0.43701,-0.325218 0.94516,-1.626086 -0.55897,-0.386196 -0.83337,-1.006141 -0.13212,-0.355706 -0.13212,-0.660597 0,-0.193098 0.061,-0.36587 0.16261,-0.447173 0.48782,-0.701249 0.36587,-0.294728 0.78256,-0.294728 0.60978,0 0.83337,0.640271 0.0406,0.121956 0.0406,0.284565 0,0.33538 -0.18294,0.914673 -0.11179,0.416685 -0.26424,0.863858 0.18294,0.05082 0.36587,0.05082 0.72158,0 1.25006,-0.853695 0.0915,-0.162609 0.2744,-0.162609 0.0915,0 0.17277,0.05082 0.15245,0.10163 0.15245,0.284565 0,0.0813 -0.0407,0.162609 -0.76222,1.168749 -1.74804,1.168749 -0.34554,0 -0.64027,-0.09147 -0.29473,0.792717 -0.69109,1.37201 -0.52847,0.77239 -1.12809,0.77239 z m 1.46347,-3.0794 q 0.10164,-0.325217 0.20327,-0.711412 l 0.0305,-0.111794 q 0.12196,-0.406521 0.13212,-0.630108 0,-0.284565 -0.23375,-0.284565 -0.17277,0 -0.36587,0.162608 -0.0711,0.04065 -0.1626,0.162609 -0.14229,0.182935 -0.14229,0.426848 0,0.518315 0.53864,0.985814 z"
         id="path97700" />
      <path
         d="m 119.97755,45.766949 q -0.18293,0 -0.35571,-0.0813 -0.64027,-0.36587 -0.64027,-1.636249 0.0102,-0.833369 0.30489,-1.717554 0.79272,-2.205379 2.34767,-2.205379 0.73173,0 1.34152,0.548804 l 0.0508,-0.132119 q 0.18294,-0.447174 0.31506,-0.721576 0.0915,-0.193097 0.30489,-0.193097 l 0.0813,0.02033 q 0.25408,0.06098 0.25408,0.304891 0,0.10163 -0.2744,0.934999 -0.32522,1.046793 -0.32522,1.869999 0,0.223587 0.0711,0.813043 0.0711,0.579293 0.52848,0.813043 0.11179,0.06098 0.25407,0.06098 0.36587,0 1.03663,-0.477663 0.67076,-0.487825 1.77853,-2.17489 0.0915,-0.142282 0.25408,-0.142282 0.10163,0 0.1931,0.05082 0.15244,0.09147 0.15244,0.274402 0,0.09147 -0.0508,0.172772 -1.93098,2.947281 -3.29283,2.947281 -0.36587,0 -0.59961,-0.121957 -0.78256,-0.386195 -0.94517,-1.666738 -0.0305,-0.254076 -0.0305,-0.538641 -0.31505,0.630108 -0.69108,1.199238 -1.19924,1.798858 -2.0631,1.798858 z m 0.0102,-0.650434 q 0.47767,0 1.5143,-1.50413 0.71141,-1.128097 1.2094,-2.327335 -0.061,-0.02033 -0.1118,-0.07114 -0.45733,-0.447173 -0.97565,-0.447173 -0.39636,0 -0.69108,0.213423 -0.50816,0.36587 -0.84354,1.097609 -0.45733,1.00614 -0.45733,1.961466 0,0.10163 0.0102,0.193097 0.0508,0.884185 0.34554,0.884185 z"
         id="path97702" />
    </g>
    <g
       aria-label="Partnering in your transformation"
       id="text420195"
       style="font-size:5.3975px;line-height:1.25;font-family:'Tahu!';-inkscape-font-specification:'Tahu!';display:inline;fill:#005f73;stroke-width:0.110561">
      <path
         d="m 38.145892,59.451408 -0.421005,-0.06477 v -0.269875 h 0.717868 q 0.19431,0 0.383222,-0.01619 0.291465,-0.02159 0.550545,-0.02159 0.782638,0.0054 1.106488,0.291465 0.32385,0.286067 0.32385,0.8636 0,0.4318 -0.199708,0.750252 -0.199707,0.318453 -0.555942,0.485775 -0.350838,0.167323 -0.809625,0.167323 -0.156528,0 -0.318453,-0.0054 -0.161925,-0.0108 -0.199707,-0.01619 v 1.18745 l 0.739457,0.05937 v 0.264478 H 37.6979 v -0.264478 l 0.447992,-0.05398 z m 0.577533,1.867535 q 0.15113,0.02699 0.51816,0.02699 0.426402,0 0.69088,-0.25908 0.269875,-0.25908 0.269875,-0.847408 0,-0.464185 -0.232093,-0.663892 -0.232092,-0.205105 -0.723265,-0.205105 -0.17272,0 -0.36703,0.02159 -0.118745,0.0108 -0.156527,0.0108 z"
         style="font-family:Merriweather;-inkscape-font-specification:Merriweather"
         id="path97724" />
      <path
         d="m 41.184686,62.317481 q 0,-0.507365 0.507365,-0.744855 0.507365,-0.242888 1.284605,-0.25908 v -0.15113 q 0,-0.253683 -0.05398,-0.399415 -0.05397,-0.145733 -0.188913,-0.210503 -0.12954,-0.07017 -0.372427,-0.07017 -0.275273,0 -0.49657,0.08096 -0.2159,0.07556 -0.4318,0.188913 l -0.134938,-0.28067 q 0.07017,-0.05937 0.25908,-0.156528 0.188913,-0.09716 0.437198,-0.17272 0.248285,-0.07556 0.49657,-0.07556 0.383222,0 0.60452,0.10795 0.226695,0.102553 0.32385,0.334645 0.09716,0.232093 0.09716,0.620713 v 1.732597 h 0.318452 v 0.23749 q -0.10795,0.02699 -0.275272,0.05398 -0.161925,0.02699 -0.286068,0.02699 -0.15113,0 -0.205105,-0.04858 -0.05398,-0.04318 -0.05398,-0.199707 v -0.178118 q -0.161925,0.161925 -0.399415,0.296863 -0.232092,0.134937 -0.528955,0.134937 -0.38862,0 -0.6477,-0.221297 -0.253682,-0.226695 -0.253682,-0.6477 z m 1.133475,0.501967 q 0.140335,0 0.32385,-0.08636 0.183515,-0.08636 0.334645,-0.205105 v -0.92837 q -0.588328,0 -0.890588,0.183515 -0.296862,0.178118 -0.296862,0.469583 0,0.291465 0.140335,0.4318 0.145732,0.134937 0.38862,0.134937 z"
         style="font-family:Merriweather;-inkscape-font-specification:Merriweather"
         id="path97726" />
      <path
         d="m 44.223482,62.862628 0.404813,-0.03238 v -2.283142 l -0.38862,-0.09716 v -0.291465 l 0.744855,-0.09716 h 0.0108 l 0.118745,0.09716 v 0.09716 l -0.01619,0.421005 h 0.01619 q 0.05398,-0.09176 0.19431,-0.23749 0.140335,-0.145733 0.361633,-0.264478 0.221297,-0.124142 0.480377,-0.124142 0.10795,0 0.178118,0.02699 v 0.60452 q -0.03778,-0.02699 -0.124143,-0.04858 -0.08096,-0.02699 -0.183515,-0.02699 -0.447992,0 -0.831215,0.275273 v 1.9431 l 0.685483,0.04318 v 0.25908 h -1.651636 z"
         style="font-family:Merriweather;-inkscape-font-specification:Merriweather"
         id="path97728" />
      <path
         d="m 47.607716,63.181081 q -0.307657,0 -0.458787,-0.140335 -0.15113,-0.140335 -0.15113,-0.480378 v -2.07264 h -0.38862 v -0.242887 q 0.02699,-0.0054 0.15113,-0.03778 0.124142,-0.03239 0.167322,-0.05937 0.08636,-0.04858 0.134938,-0.19431 0.04318,-0.102553 0.102552,-0.329248 0.05937,-0.226695 0.07017,-0.269875 h 0.318452 l 0.01079,0.77724 h 0.901383 v 0.356235 h -0.901383 v 1.657033 q 0,0.307657 0.01619,0.4318 0.02159,0.124142 0.08096,0.161925 0.06477,0.03778 0.2159,0.03778 0.145733,0 0.318453,-0.03778 0.178117,-0.03778 0.275272,-0.08096 l 0.08096,0.242888 q -0.12954,0.09716 -0.421005,0.188912 -0.286068,0.09176 -0.523558,0.09176 z"
         style="font-family:Merriweather;-inkscape-font-specification:Merriweather"
         id="path97730" />
      <path
         d="m 49.205374,60.547101 -0.38862,-0.09716 v -0.291465 l 0.771843,-0.09716 h 0.01619 l 0.113348,0.09716 v 0.226695 l -0.0054,0.12954 q 0.19431,-0.17272 0.512763,-0.313055 0.318452,-0.140335 0.609917,-0.140335 0.340043,0 0.523558,0.12954 0.188912,0.12954 0.264477,0.399415 0.07556,0.264477 0.07556,0.717867 v 1.5113 l 0.377825,0.03778 v 0.269875 H 50.797628 V 62.86262 l 0.334645,-0.04318 v -1.516697 q 0,-0.318453 -0.04318,-0.49657 -0.04318,-0.183515 -0.161925,-0.269875 -0.118745,-0.09176 -0.34544,-0.09176 -0.19431,0 -0.415608,0.09716 -0.221297,0.09716 -0.394017,0.226695 v 2.045653 l 0.36703,0.04858 v 0.264478 h -1.27381 v -0.264478 l 0.340042,-0.04858 z"
         style="font-family:Merriweather;-inkscape-font-specification:Merriweather"
         id="path97732" />
      <path
         d="m 53.793247,63.186478 q -0.653098,0 -0.998538,-0.426402 -0.340042,-0.426403 -0.340042,-1.138873 0,-0.469582 0.178117,-0.825817 0.178118,-0.356235 0.49657,-0.550545 0.32385,-0.19431 0.73406,-0.19431 0.501968,0 0.77724,0.28067 0.28067,0.275272 0.296863,0.793432 0,0.329248 -0.03778,0.501968 h -1.85674 q 0.0108,0.534352 0.248285,0.8636 0.23749,0.32385 0.674688,0.32385 0.2159,0 0.447992,-0.07556 0.23749,-0.08096 0.36703,-0.188913 l 0.102553,0.23749 q -0.156528,0.161925 -0.464185,0.28067 -0.307658,0.118745 -0.62611,0.118745 z m 0.550545,-1.845945 q 0.01619,-0.113347 0.01619,-0.232092 -0.0054,-0.350838 -0.15113,-0.550545 -0.140335,-0.205105 -0.447992,-0.205105 -0.313055,0 -0.501968,0.226695 -0.183515,0.226695 -0.210502,0.761047 z"
         style="font-family:Merriweather;-inkscape-font-specification:Merriweather"
         id="path97734" />
      <path
         d="m 55.4125,62.862628 0.404812,-0.03238 v -2.283142 l -0.38862,-0.09716 v -0.291465 l 0.744855,-0.09716 h 0.0108 l 0.118745,0.09716 v 0.09716 l -0.01619,0.421005 h 0.01619 q 0.05398,-0.09176 0.19431,-0.23749 0.140335,-0.145733 0.361633,-0.264478 0.221297,-0.124142 0.480377,-0.124142 0.10795,0 0.178118,0.02699 v 0.60452 q -0.03778,-0.02699 -0.124143,-0.04858 -0.08096,-0.02699 -0.183515,-0.02699 -0.447992,0 -0.831215,0.275273 v 1.9431 l 0.685483,0.04318 v 0.25908 H 55.4125 Z"
         style="font-family:Merriweather;-inkscape-font-specification:Merriweather"
         id="path97736" />
      <path
         d="m 58.510665,59.591743 q -0.17272,0 -0.25908,-0.09716 -0.08636,-0.09716 -0.08636,-0.248285 0,-0.17272 0.102553,-0.286067 0.10795,-0.113348 0.291465,-0.113348 0.183515,0 0.269875,0.09716 0.08636,0.09716 0.08636,0.248285 0,0.183515 -0.10795,0.291465 -0.102553,0.10795 -0.291465,0.10795 z m -0.2159,0.955358 -0.41021,-0.09716 v -0.286068 l 0.836613,-0.102552 h 0.0108 l 0.124142,0.09716 v 2.660967 l 0.4318,0.04318 v 0.264478 h -1.430337 v -0.264478 l 0.437197,-0.04858 z"
         style="font-family:Merriweather;-inkscape-font-specification:Merriweather"
         id="path97738" />
      <path
         d="m 59.994979,60.547101 -0.38862,-0.09716 v -0.291465 l 0.771843,-0.09716 h 0.01619 l 0.113348,0.09716 v 0.226695 l -0.0054,0.12954 q 0.19431,-0.17272 0.512763,-0.313055 0.318452,-0.140335 0.609917,-0.140335 0.340043,0 0.523558,0.12954 0.188912,0.12954 0.264477,0.399415 0.07557,0.264477 0.07557,0.717867 v 1.5113 l 0.377825,0.03778 v 0.269875 H 61.587243 V 62.86262 l 0.334645,-0.04318 v -1.516697 q 0,-0.318453 -0.04318,-0.49657 -0.04318,-0.183515 -0.161925,-0.269875 -0.118745,-0.09176 -0.34544,-0.09176 -0.19431,0 -0.415608,0.09716 -0.221297,0.09716 -0.394017,0.226695 v 2.045653 l 0.36703,0.04858 v 0.264478 h -1.27381 v -0.264478 l 0.340042,-0.04858 z"
         style="font-family:Merriweather;-inkscape-font-specification:Merriweather"
         id="path97740" />
      <path
         d="m 64.54507,64.584431 q -0.69088,0 -1.003935,-0.221298 -0.307657,-0.2159 -0.307657,-0.599122 0,-0.23749 0.145732,-0.437198 0.15113,-0.199707 0.356235,-0.30226 -0.248285,-0.140335 -0.248285,-0.45339 0,-0.19431 0.113348,-0.36703 0.113347,-0.17272 0.296862,-0.264477 -0.269875,-0.118745 -0.415607,-0.340043 -0.140335,-0.221297 -0.140335,-0.523557 0,-0.313055 0.17272,-0.545148 0.178117,-0.232092 0.464185,-0.356235 0.291465,-0.124142 0.615315,-0.124142 0.545147,0 0.852805,0.226695 0.08096,-0.08096 0.248285,-0.156528 0.167322,-0.07556 0.356235,-0.07556 h 0.183515 v 0.47498 h -0.593725 q 0.12954,0.199708 0.12954,0.464185 0,0.318453 -0.161925,0.566738 -0.156528,0.242887 -0.442595,0.377825 -0.28067,0.134937 -0.636905,0.134937 -0.232093,0 -0.415608,-0.04858 -0.07556,0.07557 -0.124142,0.167322 -0.04858,0.09176 -0.04858,0.178118 0,0.19431 0.12954,0.269875 0.12954,0.07017 0.464185,0.07017 h 0.609918 q 0.523557,0 0.77724,0.199708 0.253682,0.199707 0.253682,0.566737 0,0.307658 -0.221297,0.56134 -0.221298,0.25908 -0.599123,0.404813 -0.372427,0.15113 -0.809625,0.15113 z m 0.03778,-2.817495 q 0.615315,0 0.615315,-0.728663 0,-0.361632 -0.161925,-0.528955 -0.156528,-0.17272 -0.47498,-0.17272 -0.296863,0 -0.469583,0.167323 -0.17272,0.161925 -0.17272,0.523557 0,0.340043 0.161925,0.53975 0.167323,0.199708 0.501968,0.199708 z m 0.0108,2.50444 q 0.264477,0 0.49657,-0.08096 0.23749,-0.07557 0.383222,-0.232092 0.145733,-0.15113 0.145733,-0.356235 0,-0.242888 -0.12954,-0.356235 -0.12954,-0.10795 -0.501968,-0.10795 H 64.35076 q -0.2159,0 -0.340042,-0.02699 -0.221298,0.242888 -0.221298,0.545148 0,0.30226 0.183515,0.458787 0.183515,0.156528 0.620713,0.156528 z"
         style="font-family:Merriweather;-inkscape-font-specification:Merriweather"
         id="path97742" />
      <path
         d="m 68.447461,59.591743 q -0.17272,0 -0.25908,-0.09716 -0.08636,-0.09716 -0.08636,-0.248285 0,-0.17272 0.102553,-0.286067 0.10795,-0.113348 0.291465,-0.113348 0.183515,0 0.269875,0.09716 0.08636,0.09716 0.08636,0.248285 0,0.183515 -0.10795,0.291465 -0.102553,0.10795 -0.291465,0.10795 z m -0.2159,0.955358 -0.41021,-0.09716 v -0.286068 l 0.836613,-0.102552 h 0.01079 l 0.124142,0.09716 v 2.660967 l 0.4318,0.04318 v 0.264478 h -1.430337 v -0.264478 l 0.437197,-0.04858 z"
         style="font-family:Merriweather;-inkscape-font-specification:Merriweather"
         id="path97744" />
      <path
         d="m 69.931775,60.547101 -0.38862,-0.09716 v -0.291465 l 0.771843,-0.09716 h 0.01619 l 0.113348,0.09716 v 0.226695 l -0.0054,0.12954 q 0.19431,-0.17272 0.512763,-0.313055 0.318452,-0.140335 0.609917,-0.140335 0.340043,0 0.523558,0.12954 0.188912,0.12954 0.264477,0.399415 0.07556,0.264477 0.07556,0.717867 v 1.5113 l 0.377825,0.03778 v 0.269875 H 71.524029 V 62.86262 l 0.334645,-0.04318 v -1.516697 q 0,-0.318453 -0.04318,-0.49657 -0.04318,-0.183515 -0.161925,-0.269875 -0.118745,-0.09176 -0.34544,-0.09176 -0.19431,0 -0.415608,0.09716 -0.221297,0.09716 -0.394017,0.226695 v 2.045653 l 0.36703,0.04858 v 0.264478 h -1.27381 v -0.264478 l 0.340042,-0.04858 z"
         style="font-family:Merriweather;-inkscape-font-specification:Merriweather"
         id="path97746" />
      <path
         d="m 74.908265,64.471083 q -0.09176,0 -0.183515,-0.01079 -0.08636,-0.0108 -0.124143,-0.03239 v -0.469582 q 0.03239,0.02159 0.124143,0.03239 0.09716,0.0108 0.183515,0.0108 0.25908,0 0.45339,-0.183515 0.199707,-0.178118 0.383222,-0.69088 h -0.25908 l -1.025525,-2.671763 -0.248285,-0.07017 V 60.1315 h 1.300798 v 0.253683 l -0.415608,0.06477 0.528955,1.592262 0.248285,0.788035 0.232093,-0.793432 0.480377,-1.586865 -0.361632,-0.06477 V 60.1315 h 1.084897 v 0.253683 l -0.269875,0.06477 q -0.793432,2.428875 -0.933767,2.758122 -0.183515,0.464185 -0.334645,0.723265 -0.15113,0.264478 -0.356235,0.399415 -0.205105,0.140335 -0.507365,0.140335 z"
         style="font-family:Merriweather;-inkscape-font-specification:Merriweather"
         id="path97748" />
      <path
         d="m 77.558439,61.621203 q 0,-0.485775 0.199708,-0.84201 0.199707,-0.356235 0.523557,-0.53975 0.329248,-0.188912 0.701675,-0.188912 0.680085,0 1.020128,0.4318 0.34544,0.4318 0.34544,1.133475 0,0.491172 -0.199708,0.847407 -0.199707,0.356235 -0.528955,0.53975 -0.32385,0.183515 -0.696277,0.183515 -0.680085,0 -1.025525,-0.4318 -0.340043,-0.4318 -0.340043,-1.133475 z m 1.397953,1.257618 q 0.372427,0 0.572135,-0.307658 0.199707,-0.307657 0.199707,-0.912177 0,-0.599123 -0.183515,-0.94996 -0.183515,-0.350838 -0.588327,-0.350838 -0.372428,0 -0.577533,0.307658 -0.199707,0.307657 -0.199707,0.912177 0,0.599123 0.188912,0.94996 0.188913,0.350838 0.588328,0.350838 z"
         style="font-family:Merriweather;-inkscape-font-specification:Merriweather"
         id="path97750" />
      <path
         d="m 83.295983,63.175683 q -0.15113,0 -0.226695,-0.05937 -0.07017,-0.05937 -0.07017,-0.19431 v -0.183515 q -0.178117,0.178117 -0.447992,0.313055 -0.264478,0.134937 -0.534353,0.134937 -0.501967,0 -0.71247,-0.269875 -0.210502,-0.269875 -0.210502,-0.890587 v -1.565275 l -0.30226,-0.08636 v -0.23749 l 0.75565,-0.07017 h 0.0054 l 0.102553,0.06477 v 1.851343 q 0,0.313055 0.04318,0.491172 0.04858,0.17272 0.161925,0.25908 0.118745,0.08096 0.340042,0.08096 0.2159,0 0.404813,-0.09176 0.188912,-0.09176 0.329247,-0.2159 v -2.045652 l -0.38862,-0.08636 v -0.23749 l 0.82042,-0.07017 h 0.0054 l 0.124142,0.06477 v 2.72034 h 0.32385 l -0.0054,0.242888 q -0.15113,0.03778 -0.264478,0.05937 -0.10795,0.02159 -0.253682,0.02159 z"
         style="font-family:Merriweather;-inkscape-font-specification:Merriweather"
         id="path97752" />
      <path
         d="m 84.262132,62.862628 0.404813,-0.03238 v -2.283142 l -0.38862,-0.09716 v -0.291465 l 0.744855,-0.09716 h 0.0108 l 0.118745,0.09716 v 0.09716 l -0.01619,0.421005 h 0.01619 q 0.05397,-0.09176 0.19431,-0.23749 0.140335,-0.145733 0.361632,-0.264478 0.221298,-0.124142 0.480378,-0.124142 0.10795,0 0.178117,0.02699 v 0.60452 q -0.03778,-0.02699 -0.124142,-0.04858 -0.08096,-0.02699 -0.183515,-0.02699 -0.447993,0 -0.831215,0.275273 v 1.9431 l 0.685482,0.04318 v 0.25908 h -1.651635 z"
         style="font-family:Merriweather;-inkscape-font-specification:Merriweather"
         id="path97754" />
      <path
         d="m 88.925572,63.181081 q -0.307657,0 -0.458787,-0.140335 -0.15113,-0.140335 -0.15113,-0.480378 v -2.07264 h -0.38862 v -0.242887 q 0.02699,-0.0054 0.15113,-0.03778 0.124142,-0.03239 0.167322,-0.05937 0.08636,-0.04858 0.134938,-0.19431 0.04318,-0.102553 0.102552,-0.329248 0.05937,-0.226695 0.07017,-0.269875 h 0.318452 l 0.0108,0.77724 h 0.901383 v 0.356235 h -0.901383 v 1.657033 q 0,0.307657 0.01619,0.4318 0.02159,0.124142 0.08096,0.161925 0.06477,0.03778 0.2159,0.03778 0.145733,0 0.318453,-0.03778 0.178117,-0.03778 0.275272,-0.08096 l 0.08096,0.242888 q -0.12954,0.09716 -0.421005,0.188912 -0.286068,0.09176 -0.523558,0.09176 z"
         style="font-family:Merriweather;-inkscape-font-specification:Merriweather"
         id="path97756" />
      <path
         d="m 90.210176,62.862628 0.404812,-0.03238 v -2.283142 l -0.38862,-0.09716 v -0.291465 l 0.744855,-0.09716 h 0.0108 l 0.118745,0.09716 v 0.09716 l -0.01619,0.421005 h 0.01619 q 0.05397,-0.09176 0.19431,-0.23749 0.140335,-0.145733 0.361633,-0.264478 0.221297,-0.124142 0.480377,-0.124142 0.10795,0 0.178118,0.02699 v 0.60452 q -0.03778,-0.02699 -0.124143,-0.04858 -0.08096,-0.02699 -0.183515,-0.02699 -0.447992,0 -0.831215,0.275273 v 1.9431 l 0.685483,0.04318 v 0.25908 h -1.651635 z"
         style="font-family:Merriweather;-inkscape-font-specification:Merriweather"
         id="path97758" />
      <path
         d="m 92.671434,62.317481 q 0,-0.507365 0.507365,-0.744855 0.507365,-0.242888 1.284605,-0.25908 v -0.15113 q 0,-0.253683 -0.05397,-0.399415 -0.05398,-0.145733 -0.188912,-0.210503 -0.12954,-0.07017 -0.372428,-0.07017 -0.275272,0 -0.49657,0.08096 -0.2159,0.07556 -0.4318,0.188913 l -0.134937,-0.28067 q 0.07017,-0.05937 0.25908,-0.156528 0.188912,-0.09716 0.437197,-0.17272 0.248285,-0.07556 0.49657,-0.07556 0.383223,0 0.60452,0.10795 0.226695,0.102553 0.32385,0.334645 0.09716,0.232093 0.09716,0.620713 v 1.732597 h 0.318453 v 0.23749 q -0.10795,0.02699 -0.275273,0.05398 -0.161925,0.02699 -0.286067,0.02699 -0.15113,0 -0.205105,-0.04858 -0.05397,-0.04318 -0.05397,-0.199707 v -0.178118 q -0.161925,0.161925 -0.399415,0.296863 -0.232093,0.134937 -0.528955,0.134937 -0.38862,0 -0.6477,-0.221297 -0.253683,-0.226695 -0.253683,-0.6477 z m 1.133475,0.501967 q 0.140335,0 0.32385,-0.08636 0.183515,-0.08636 0.334645,-0.205105 v -0.92837 q -0.588327,0 -0.890587,0.183515 -0.296863,0.178118 -0.296863,0.469583 0,0.291465 0.140335,0.4318 0.145733,0.134937 0.38862,0.134937 z"
         style="font-family:Merriweather;-inkscape-font-specification:Merriweather"
         id="path97760" />
      <path
         d="m 96.023288,60.547101 -0.38862,-0.09716 v -0.291465 l 0.771843,-0.09716 h 0.01619 l 0.113348,0.09716 v 0.226695 l -0.0054,0.12954 q 0.19431,-0.17272 0.512763,-0.313055 0.318452,-0.140335 0.609917,-0.140335 0.340043,0 0.523558,0.12954 0.188912,0.12954 0.264477,0.399415 0.07556,0.264477 0.07556,0.717867 v 1.5113 l 0.377825,0.03778 v 0.269875 H 97.615542 V 62.86262 l 0.334645,-0.04318 v -1.516697 q 0,-0.318453 -0.04318,-0.49657 -0.04318,-0.183515 -0.161925,-0.269875 -0.118745,-0.09176 -0.34544,-0.09176 -0.19431,0 -0.415608,0.09716 -0.221297,0.09716 -0.394017,0.226695 v 2.045653 l 0.36703,0.04858 v 0.264478 h -1.27381 v -0.264478 l 0.340042,-0.04858 z"
         style="font-family:Merriweather;-inkscape-font-specification:Merriweather"
         id="path97762" />
      <path
         d="m 99.785344,62.695306 q 0.05398,0.08096 0.226696,0.145732 0.17812,0.06477 0.37243,0.06477 0.30765,0 0.45339,-0.118745 0.14573,-0.118745 0.14573,-0.329247 0,-0.145733 -0.0918,-0.253683 -0.0918,-0.10795 -0.25908,-0.188912 -0.16192,-0.08636 -0.46958,-0.205105 -0.415608,-0.156528 -0.609918,-0.372428 -0.188913,-0.221297 -0.188913,-0.577532 0,-0.23749 0.140335,-0.415608 0.145733,-0.178117 0.394018,-0.275272 0.253678,-0.102553 0.561338,-0.102553 0.24829,0 0.4318,0.03778 0.18891,0.03778 0.30226,0.07556 0.11335,0.03778 0.15113,0.04858 v 0.66929 h -0.32925 l -0.10795,-0.399415 q -0.0324,-0.06477 -0.17272,-0.10795 -0.14033,-0.04858 -0.31305,-0.04858 -0.24289,0 -0.39402,0.10795 -0.145731,0.10795 -0.145731,0.291465 0,0.161925 0.07556,0.269875 0.08097,0.102552 0.199711,0.167322 0.11875,0.06477 0.32384,0.15113 l 0.10795,0.04318 q 0.30227,0.118745 0.49117,0.226695 0.18892,0.10795 0.31306,0.286068 0.12954,0.17272 0.12954,0.426402 0,0.399415 -0.31306,0.636905 -0.30764,0.23749 -0.84739,0.23749 -0.26449,0 -0.555951,-0.07017 -0.286067,-0.07557 -0.469582,-0.15113 v -0.69088 h 0.350837 z"
         style="font-family:Merriweather;-inkscape-font-specification:Merriweather"
         id="path97764" />
      <path
         d="m 102.44091,60.487728 h -0.50737 v -0.248285 l 0.50737,-0.102552 v -0.253683 q 0,-0.334645 0.17272,-0.615315 0.17812,-0.28067 0.45879,-0.442595 0.28606,-0.167322 0.60452,-0.167322 0.18351,0 0.31845,0.04858 v 0.53975 q -0.0486,-0.04318 -0.19431,-0.08096 -0.14034,-0.04318 -0.31306,-0.04318 -0.25368,0 -0.37242,0.134937 -0.11335,0.12954 -0.11335,0.45339 v 0.426403 h 0.74485 v 0.350837 h -0.74485 v 2.33172 l 0.59912,0.04318 v 0.264478 h -1.61925 v -0.264478 l 0.45879,-0.04858 z"
         style="font-family:Merriweather;-inkscape-font-specification:Merriweather"
         id="path97766" />
      <path
         d="m 104.1681,61.621203 q 0,-0.485775 0.19971,-0.84201 0.19971,-0.356235 0.52356,-0.53975 0.32925,-0.188912 0.70167,-0.188912 0.68009,0 1.02013,0.4318 0.34544,0.4318 0.34544,1.133475 0,0.491172 -0.19971,0.847407 -0.1997,0.356235 -0.52895,0.53975 -0.32385,0.183515 -0.69628,0.183515 -0.68008,0 -1.02552,-0.4318 -0.34005,-0.4318 -0.34005,-1.133475 z m 1.39796,1.257618 q 0.37242,0 0.57213,-0.307658 0.19971,-0.307657 0.19971,-0.912177 0,-0.599123 -0.18352,-0.94996 -0.18351,-0.350838 -0.58832,-0.350838 -0.37243,0 -0.57754,0.307658 -0.1997,0.307657 -0.1997,0.912177 0,0.599123 0.18891,0.94996 0.18891,0.350838 0.58833,0.350838 z"
         style="font-family:Merriweather;-inkscape-font-specification:Merriweather"
         id="path97768" />
      <path
         d="m 107.46058,62.862628 0.40482,-0.03238 v -2.283142 l -0.38862,-0.09716 v -0.291465 l 0.74485,-0.09716 h 0.0108 l 0.11874,0.09716 v 0.09716 l -0.0162,0.421005 h 0.0162 q 0.054,-0.09176 0.19431,-0.23749 0.14034,-0.145733 0.36163,-0.264478 0.2213,-0.124142 0.48038,-0.124142 0.10795,0 0.17812,0.02699 v 0.60452 q -0.0378,-0.02699 -0.12414,-0.04858 -0.081,-0.02699 -0.18352,-0.02699 -0.44799,0 -0.83121,0.275273 v 1.9431 l 0.68548,0.04318 v 0.25908 h -1.65164 z"
         style="font-family:Merriweather;-inkscape-font-specification:Merriweather"
         id="path97770" />
      <path
         d="m 109.91645,62.862628 0.32924,-0.04858 v -2.26695 l -0.38862,-0.09716 v -0.291465 l 0.77185,-0.09716 0.0972,0.07017 0.0324,0.2159 -0.005,0.17272 q 0.18891,-0.17272 0.51276,-0.313055 0.32925,-0.145732 0.58833,-0.145732 0.29146,0 0.46958,0.09716 0.17812,0.09716 0.26988,0.30226 0.17272,-0.145733 0.48037,-0.269875 0.31306,-0.12954 0.58293,-0.12954 0.33465,0 0.52356,0.12954 0.18891,0.124142 0.26448,0.394017 0.081,0.264478 0.081,0.71247 v 1.516698 l 0.38862,0.04858 v 0.264478 h -1.2846 v -0.264478 l 0.33464,-0.04858 v -1.500505 q 0,-0.313055 -0.0486,-0.49657 -0.0432,-0.188913 -0.17272,-0.28067 -0.12414,-0.09176 -0.36163,-0.09176 -0.17812,0 -0.37782,0.08096 -0.19971,0.07556 -0.34005,0.183515 0.0486,0.210502 0.0486,0.599122 v 1.505903 l 0.38322,0.04858 v 0.264478 h -1.30619 v -0.264478 l 0.35623,-0.04858 v -1.5113 q 0,-0.32385 -0.0432,-0.501968 -0.0378,-0.178117 -0.15113,-0.264477 -0.11334,-0.09176 -0.34544,-0.09176 -0.19431,0 -0.4156,0.09716 -0.2159,0.09716 -0.37783,0.226695 v 2.045653 l 0.36163,0.04858 v 0.264478 h -1.25761 z"
         style="font-family:Merriweather;-inkscape-font-specification:Merriweather"
         id="path97772" />
      <path
         d="m 115.29236,62.317481 q 0,-0.507365 0.50736,-0.744855 0.50737,-0.242888 1.28461,-0.25908 v -0.15113 q 0,-0.253683 -0.054,-0.399415 -0.054,-0.145733 -0.18891,-0.210503 -0.12954,-0.07017 -0.37243,-0.07017 -0.27527,0 -0.49657,0.08096 -0.2159,0.07556 -0.4318,0.188913 l -0.13494,-0.28067 q 0.0702,-0.05937 0.25908,-0.156528 0.18892,-0.09716 0.4372,-0.17272 0.24829,-0.07556 0.49657,-0.07556 0.38322,0 0.60452,0.10795 0.2267,0.102553 0.32385,0.334645 0.0972,0.232093 0.0972,0.620713 v 1.732597 h 0.31845 v 0.23749 q -0.10795,0.02699 -0.27527,0.05398 -0.16193,0.02699 -0.28607,0.02699 -0.15113,0 -0.20511,-0.04858 -0.054,-0.04318 -0.054,-0.199707 v -0.178118 q -0.16193,0.161925 -0.39942,0.296863 -0.23209,0.134937 -0.52895,0.134937 -0.38862,0 -0.6477,-0.221297 -0.25368,-0.226695 -0.25368,-0.6477 z m 1.13347,0.501967 q 0.14034,0 0.32385,-0.08636 0.18352,-0.08636 0.33465,-0.205105 v -0.92837 q -0.58833,0 -0.89059,0.183515 -0.29686,0.178118 -0.29686,0.469583 0,0.291465 0.14033,0.4318 0.14573,0.134937 0.38862,0.134937 z"
         style="font-family:Merriweather;-inkscape-font-specification:Merriweather"
         id="path97774" />
      <path
         d="m 119.24334,63.181081 q -0.30766,0 -0.45879,-0.140335 -0.15113,-0.140335 -0.15113,-0.480378 v -2.07264 h -0.38862 v -0.242887 q 0.027,-0.0054 0.15113,-0.03778 0.12414,-0.03239 0.16732,-0.05937 0.0864,-0.04858 0.13494,-0.19431 0.0432,-0.102553 0.10255,-0.329248 0.0594,-0.226695 0.0702,-0.269875 h 0.31845 l 0.0108,0.77724 h 0.90138 v 0.356235 h -0.90138 v 1.657033 q 0,0.307657 0.0162,0.4318 0.0216,0.124142 0.081,0.161925 0.0648,0.03778 0.2159,0.03778 0.14573,0 0.31845,-0.03778 0.17812,-0.03778 0.27528,-0.08096 l 0.081,0.242888 q -0.12954,0.09716 -0.42101,0.188912 -0.28606,0.09176 -0.52355,0.09176 z"
         style="font-family:Merriweather;-inkscape-font-specification:Merriweather"
         id="path97776" />
      <path
         d="m 121.15405,59.591743 q -0.17272,0 -0.25908,-0.09716 -0.0864,-0.09716 -0.0864,-0.248285 0,-0.17272 0.10255,-0.286067 0.10795,-0.113348 0.29146,-0.113348 0.18352,0 0.26988,0.09716 0.0864,0.09716 0.0864,0.248285 0,0.183515 -0.10795,0.291465 -0.10255,0.10795 -0.29147,0.10795 z m -0.2159,0.955358 -0.41021,-0.09716 v -0.286068 l 0.83661,-0.102552 h 0.0108 l 0.12415,0.09716 v 2.660967 l 0.4318,0.04318 v 0.264478 h -1.43034 v -0.264478 l 0.4372,-0.04858 z"
         style="font-family:Merriweather;-inkscape-font-specification:Merriweather"
         id="path97778" />
      <path
         d="m 122.31451,61.621203 q 0,-0.485775 0.19971,-0.84201 0.19971,-0.356235 0.52356,-0.53975 0.32924,-0.188912 0.70167,-0.188912 0.68009,0 1.02013,0.4318 0.34544,0.4318 0.34544,1.133475 0,0.491172 -0.19971,0.847407 -0.19971,0.356235 -0.52895,0.53975 -0.32385,0.183515 -0.69628,0.183515 -0.68009,0 -1.02553,-0.4318 -0.34004,-0.4318 -0.34004,-1.133475 z m 1.39795,1.257618 q 0.37243,0 0.57214,-0.307658 0.19971,-0.307657 0.19971,-0.912177 0,-0.599123 -0.18352,-0.94996 -0.18351,-0.350838 -0.58833,-0.350838 -0.37242,0 -0.57753,0.307658 -0.19971,0.307657 -0.19971,0.912177 0,0.599123 0.18892,0.94996 0.18891,0.350838 0.58832,0.350838 z"
         style="font-family:Merriweather;-inkscape-font-specification:Merriweather"
         id="path97780" />
      <path
         d="m 125.92004,60.547101 -0.38862,-0.09716 v -0.291465 l 0.77184,-0.09716 h 0.0162 l 0.11335,0.09716 v 0.226695 l -0.005,0.12954 q 0.19431,-0.17272 0.51277,-0.313055 0.31845,-0.140335 0.60991,-0.140335 0.34005,0 0.52356,0.12954 0.18891,0.12954 0.26448,0.399415 0.0756,0.264477 0.0756,0.717867 v 1.5113 l 0.37783,0.03778 v 0.269875 h -1.27921 V 62.86262 l 0.33465,-0.04318 v -1.516697 q 0,-0.318453 -0.0432,-0.49657 -0.0432,-0.183515 -0.16193,-0.269875 -0.11874,-0.09176 -0.34544,-0.09176 -0.19431,0 -0.41561,0.09716 -0.22129,0.09716 -0.39401,0.226695 v 2.045653 l 0.36703,0.04858 v 0.264478 H 125.58 v -0.264478 l 0.34004,-0.04858 z"
         style="font-family:Merriweather;-inkscape-font-specification:Merriweather"
         id="path97782" />
    </g>
  </g>
</svg>
