<?xml version="1.0" encoding="UTF-8" standalone="no"?>
<!-- Created with Inkscape (http://www.inkscape.org/) -->

<svg
   width="73.807274mm"
   height="27.392145mm"
   viewBox="0 0 73.807274 27.392145"
   version="1.1"
   id="svg6185"
   xmlns="http://www.w3.org/2000/svg"
   xmlns:svg="http://www.w3.org/2000/svg">
  <defs
     id="defs6182" />
  <g
     id="g98902"
     transform="translate(-11.064431,-11.064484)">
    <path
       id="ellipse420179"
       style="display:inline;fill:#001219;fill-opacity:1;stroke:none;stroke-width:0;paint-order:markers fill stroke;stop-color:#000000"
       d="m 33.985577,11.07165 a 8.8850873,13.928304 15 0 0 -8.891202,6.267416 15.463307,9.8642891 34.250455 0 1 4.073941,2.221876 15.463307,9.8642891 34.250455 0 1 8.367081,13.396939 8.8850873,13.928304 15 0 0 2.629912,-5.945108 8.8850873,13.928304 15 0 0 -4.977437,-15.753265 8.8850873,13.928304 15 0 0 -1.202295,-0.187858 z" />
    <ellipse
       style="display:inline;fill:#005f73;fill-opacity:1;stroke:none;stroke-width:0;paint-order:markers fill stroke;stop-color:#000000"
       id="ellipse420183"
       cx="-9.6169567"
       cy="35.119198"
       rx="8.885087"
       ry="13.928305"
       transform="rotate(-55.749545)" />
    <g
       aria-label="Hellen"
       id="text420187"
       style="font-size:20.8139px;line-height:1.25;font-family:'Youth line - Personal Use';-inkscape-font-specification:'Youth line - Personal Use';display:inline;fill:#001219;stroke-width:0.2"
       transform="matrix(0.4739423,0,0,0.4739423,24.372688,1.2184139)">
      <path
         d="m 50.453843,53.968304 q -0.203261,0 -0.345544,-0.07114 -0.640271,-0.325217 -0.640271,-1.717553 0,-0.0813 0.01016,-0.772391 0.02033,-0.691087 0.528478,-3.099726 0.752065,-3.465596 1.900488,-7.622278 -1.087445,-0.13212 -2.205379,-0.13212 -2.500107,0 -6.75842,0.792717 -0.924836,0.162609 -1.809021,0.304891 -2.205379,8.038963 -2.205379,10.53907 0,0.874021 0.213424,1.087445 0.04065,0.04065 0.111794,0.04065 0.05082,0 0.121956,-0.02033 0.07114,-0.02033 0.121957,-0.02033 0.07114,0 0.162608,0.06098 0.152446,0.09147 0.152446,0.264239 0,0.365869 -0.548804,0.365869 -0.203261,0 -0.345544,-0.07114 -0.640271,-0.325217 -0.640271,-1.717553 0,-0.0813 0.01016,-0.772391 0.02033,-0.691087 0.518315,-3.109889 0.650434,-2.97777 1.626086,-6.544996 -1.432988,0.213423 -2.632227,0.223586 -0.193097,0 -0.274402,-0.0813 -0.121956,-0.111793 -0.121956,-0.274402 0,-0.213424 0.376032,-0.376032 0.325217,-0.142283 0.406522,-0.223587 0.0813,-0.0813 0.213424,-0.09147 0.132119,0 0.233749,0.10163 0.101631,0.10163 0.101631,0.23375 v 0.02033 q 0.884184,-0.07114 1.880162,-0.213424 l 0.508151,-1.869999 q 1.087445,-3.902606 1.778532,-6.870213 0.518315,-2.286683 0.518315,-3.282661 0,-0.294728 -0.04065,-0.376032 -0.03049,-0.0813 -0.03049,-0.142283 0,-0.06098 0.03049,-0.152445 0.07114,-0.172772 0.294728,-0.172772 0.06098,0 0.142282,0.04065 0.254076,0.111794 0.254076,0.904511 0,0.985814 -0.528478,3.31315 -0.528478,2.327335 -1.798857,6.910865 l -0.426848,1.585434 1.514293,-0.254076 q 1.57527,-0.284565 3.282661,-0.518315 2.022444,-0.274402 3.699345,-0.274402 1.199239,0 2.266357,0.152445 l 0.23375,-0.853695 q 1.087445,-3.912769 1.788695,-6.880376 0.508152,-2.307009 0.508152,-3.242009 0,-0.325217 -0.05082,-0.426847 -0.02033,-0.07114 -0.02033,-0.13212 0,-0.06098 0.03049,-0.152445 0.07114,-0.172772 0.294728,-0.172772 0.06098,0 0.152445,0.04065 0.243913,0.111794 0.243913,0.904511 0,0.985814 -0.528478,3.31315 -0.609782,2.713531 -2.012281,7.703582 1.80902,0.345543 3.221683,1.178912 0.162608,0.09147 0.162608,0.284565 0,0.0813 -0.04065,0.162609 -0.10163,0.162608 -0.274402,0.162608 -0.09147,0 -0.172772,-0.05082 -1.432988,-0.813043 -3.059074,-1.107771 -1.168749,4.166845 -1.920814,7.642604 -0.518315,2.500107 -0.518315,3.750161 0,0.874021 0.213424,1.087445 0.04065,0.04065 0.111793,0.04065 0.05082,0 0.121957,-0.02033 0.07114,-0.02033 0.121956,-0.02033 0.07114,0 0.172772,0.06098 0.142283,0.0813 0.142283,0.264239 0,0.365869 -0.548804,0.365869 z"
         id="path97681" />
      <path
         d="m 58.187914,46.376516 q -1.006141,0 -1.554945,-0.985815 -0.345543,-0.670761 -0.345543,-1.483803 0,-1.280543 0.721575,-2.428966 0.548804,-0.813043 1.422826,-1.006141 0.162608,-0.03049 0.304891,-0.03049 0.345543,0 0.599619,0.172771 0.355706,0.294729 0.355706,0.772391 0,0.345544 -0.203261,0.762228 -0.233749,0.457337 -0.691086,0.752065 -0.447174,0.294728 -1.067119,0.304891 -0.33538,0 -0.711413,-0.111793 -0.0813,0.43701 -0.0813,0.813043 0,0.691086 0.264239,1.168749 0.33538,0.630108 0.985815,0.650434 0.609782,0 1.402499,-0.630108 1.148423,-0.90451 2.459455,-3.262335 0.10163,-0.162609 0.284565,-0.162609 0.0813,0 0.162608,0.04065 0.162609,0.101631 0.162609,0.284566 0,0.0813 -0.04065,0.162608 -1.199239,2.154564 -2.378151,3.231846 -1.087445,0.985815 -2.052933,0.985815 z m -0.416685,-3.821302 q 0.294728,0 0.619945,-0.162609 0.335381,-0.162609 0.518315,-0.548804 0.13212,-0.243913 0.13212,-0.477663 0,-0.274402 -0.294728,-0.274402 -0.325217,0 -0.691087,0.23375 -0.497989,0.325217 -0.843532,1.148423 0.304891,0.08131 0.558967,0.08131 z"
         id="path97683" />
      <path
         d="m 61.897422,48.571732 q -0.162609,0 -0.254076,-0.08131 -0.172772,-0.152445 -0.172772,-1.463477 0,-2.30701 0.752065,-5.701464 0.945162,-4.278639 2.357824,-8.120267 0.853696,-2.317172 1.534619,-3.51641 0.193098,-0.36587 0.416685,-0.36587 0.121956,0 0.233749,0.0813 0.111794,0.0813 0.111794,0.304891 0,0.05082 -0.03049,0.264239 -0.07114,0.426847 -0.07114,0.609782 0,0.172771 0.03049,0.325217 v 0.07114 q 0,0.09147 -0.06098,0.172772 -0.09147,0.132119 -0.264239,0.132119 -0.254076,0 -0.315054,-0.254076 v -0.01016 q -1.300869,2.87614 -2.561085,7.388528 -0.355706,1.27038 -0.741902,3.018422 -0.741902,3.374129 -0.741902,5.559182 0,0.640271 0.06098,1.219564 v 0.03049 q 0,0.111794 -0.07114,0.213424 -0.0813,0.10163 -0.213423,0.121957 z"
         id="path97685" />
      <path
         d="m 63.869052,48.571732 q -0.162609,0 -0.254076,-0.08131 -0.172772,-0.152445 -0.172772,-1.463477 0,-2.30701 0.752065,-5.701464 0.945162,-4.278639 2.357825,-8.120267 0.853695,-2.317172 1.534618,-3.51641 0.193098,-0.36587 0.416685,-0.36587 0.121956,0 0.23375,0.0813 0.111793,0.0813 0.111793,0.304891 0,0.05082 -0.03049,0.264239 -0.07114,0.426847 -0.07114,0.609782 0,0.172771 0.03049,0.325217 v 0.07114 q 0,0.09147 -0.06098,0.172772 -0.09147,0.132119 -0.264239,0.132119 -0.254075,0 -0.315054,-0.254076 v -0.01016 q -1.300868,2.87614 -2.561085,7.388528 -0.355706,1.27038 -0.741902,3.018422 -0.741901,3.374129 -0.741901,5.559182 0,0.640271 0.06098,1.219564 v 0.03049 q 0,0.111794 -0.07114,0.213424 -0.08131,0.10163 -0.213424,0.121957 z"
         id="path97687" />
      <path
         d="m 67.08057,46.376516 q -1.006141,0 -1.554945,-0.985815 -0.345543,-0.670761 -0.345543,-1.483803 0,-1.280543 0.721576,-2.428966 0.548804,-0.813043 1.422825,-1.006141 0.162608,-0.03049 0.304891,-0.03049 0.345543,0 0.599619,0.172771 0.355706,0.294729 0.355706,0.772391 0,0.345544 -0.20326,0.762228 -0.23375,0.457337 -0.691087,0.752065 -0.447173,0.294728 -1.067119,0.304891 -0.33538,0 -0.711412,-0.111793 -0.08131,0.43701 -0.08131,0.813043 0,0.691086 0.264239,1.168749 0.335381,0.630108 0.985815,0.650434 0.609782,0 1.402499,-0.630108 1.148423,-0.90451 2.459455,-3.262335 0.10163,-0.162609 0.284565,-0.162609 0.0813,0 0.162609,0.04065 0.162608,0.101631 0.162608,0.284566 0,0.0813 -0.04065,0.162608 -1.199238,2.154564 -2.378151,3.231846 -1.087444,0.985815 -2.052933,0.985815 z m -0.416685,-3.821302 q 0.294729,0 0.619946,-0.162609 0.33538,-0.162609 0.518315,-0.548804 0.132119,-0.243913 0.132119,-0.477663 0,-0.274402 -0.294728,-0.274402 -0.325217,0 -0.691086,0.23375 -0.497989,0.325217 -0.843533,1.148423 0.304892,0.08131 0.558967,0.08131 z"
         id="path97689" />
      <path
         d="m 70.739265,46.437494 q -0.325217,0 -0.325217,-0.345544 0.07114,-0.802879 0.254075,-2.124074 0.569131,-4.278639 1.16875,-4.278639 0.09147,0 0.182934,0.05082 0.142283,0.111794 0.142283,0.264239 0,0.101631 -0.05082,0.193098 -0.23375,0.437011 -0.538641,2.124075 1.321195,-2.337499 2.225705,-2.398477 0.254076,0 0.447173,0.132119 0.487826,0.345544 0.518315,1.788695 v 1.158586 q 0,2.215542 0.355707,2.215542 0.142282,0 0.467499,-0.274402 0.843532,-0.721575 2.388314,-3.120052 0.111794,-0.142283 0.264239,-0.142283 0.10163,0 0.193098,0.05082 0.142282,0.09147 0.142282,0.254075 0,0.101631 -0.05082,0.193098 -1.311032,2.042771 -2.154564,2.926955 -0.741901,0.762228 -1.260216,0.762228 -0.101631,0 -0.203261,-0.03049 -0.579293,-0.203261 -0.70125,-1.097608 -0.09147,-0.711413 -0.10163,-1.636249 l 0.01016,-0.477663 q 0,-0.90451 -0.02033,-1.219565 -0.05082,-0.548804 -0.203261,-0.782553 l -0.05082,-0.01016 q -0.4675,0 -1.443151,1.575271 -0.985815,1.666738 -1.178913,2.611901 -0.05082,0.09147 -0.152445,1.341521 -0.01016,0.132119 -0.10163,0.213423 -0.09147,0.08131 -0.223587,0.08131 z"
         id="path97691" />
    </g>
    <g
       aria-label="Zziwa"
       id="text420191"
       style="font-size:20.8139px;line-height:1.25;font-family:'Youth line - Personal Use';-inkscape-font-specification:'Youth line - Personal Use';display:inline;fill:#001219;stroke-width:0.186926"
       transform="matrix(0.4739423,0,0,0.4739423,24.372688,1.2184139)">
      <path
         d="m 87.211918,54.283574 q -3.343639,0 -4.827442,-1.03663 -0.904511,-0.630108 -0.904511,-1.687064 v -0.09147 q 0.01016,-0.670761 0.609782,-1.60576 0.497989,-0.741902 1.829347,-1.991955 1.331358,-1.260217 3.201357,-2.916792 2.052933,-1.809021 4.166845,-3.770487 -1.087445,0.23375 -2.134238,0.518315 -2.256194,0.609782 -3.404617,0.630108 -0.274402,0 -0.355707,-0.233749 -0.02033,-0.06098 -0.02033,-0.111794 0,-0.193098 0.264239,-0.355706 0.13212,-0.0813 0.23375,-0.182935 0.09147,-0.152445 0.254076,-0.152445 0.101631,0 0.193098,0.05082 0.152445,0.10163 0.152445,0.284565 1.148424,-0.182935 2.510271,-0.558967 1.504129,-0.426848 3.150541,-0.691087 6.575485,-6.280757 6.575485,-9.146733 0,-1.260217 -1.47364,-1.880162 -2.357825,-0.90451 -6.016518,-0.90451 -3.089564,0 -5.172986,0.609782 -1.473641,0.426848 -1.829347,1.026467 -0.07114,0.121956 -0.07114,0.254076 0,0.518315 0.945162,1.189075 0.142283,0.10163 0.142283,0.274402 0,0.09147 -0.06098,0.172772 -0.101631,0.142282 -0.284565,0.142282 -0.08131,0 -0.172772,-0.06098 -1.006141,-0.741902 -1.158586,-1.321195 -0.06098,-0.223587 -0.06098,-0.416684 0,-1.189076 2.367987,-1.890325 2.215542,-0.630109 5.406736,-0.630109 3.760324,0 6.209616,0.955326 1.890325,0.792717 1.890325,2.550922 -0.02033,2.347662 -3.800976,6.504344 -1.128097,1.229727 -2.398477,2.469618 0.142282,-0.01016 0.426847,-0.01016 2.469618,0 4.105867,1.47364 0.101631,0.09147 0.101631,0.254076 0,0.111794 -0.09147,0.213424 -0.09147,0.10163 -0.243912,0.10163 -0.111794,0 -0.203261,-0.0813 -1.056956,-0.924836 -2.296847,-1.168749 -0.721575,-0.142283 -1.463477,-0.142283 -0.528478,0 -1.067119,0.07114 -2.469618,2.327335 -4.878258,4.45141 -1.778531,1.575271 -3.120052,2.825324 -1.331358,1.250054 -1.809021,1.951303 -0.508151,0.762228 -0.508151,1.361847 0,0.680924 0.650434,1.13826 1.341521,0.914674 4.441247,0.914674 1.687064,0 3.67902,-0.304891 2.825324,-0.4675 4.88842,-1.341521 2.07326,-0.874022 2.957444,-1.97163 0.101631,-0.121956 0.264239,-0.121956 0.101631,0 0.193098,0.06098 0.121956,0.111794 0.121956,0.264239 0,0.101631 -0.07114,0.193098 -0.975651,1.260217 -3.363965,2.235868 -2.154564,0.874021 -4.878258,1.321195 -1.991955,0.315054 -3.790813,0.315054 z"
         id="path97694" />
      <path
         d="m 101.08446,56.864985 q -0.38619,0 -0.66059,-0.10163 -0.985818,-0.376032 -1.311036,-1.666738 -0.111793,-0.4675 -0.111793,-0.985815 0,-0.945162 0.345543,-2.063096 0.4675,-1.432988 1.189076,-2.459455 0.72158,-1.026467 1.60576,-1.809021 0.88418,-0.782554 1.83951,-1.504129 0.60978,-0.4675 1.21956,-0.965489 -0.15244,-0.23375 -0.38619,-0.365869 -0.3862,-0.213424 -0.83337,-0.223587 -0.55897,0 -1.04679,0.121957 -0.41669,0.111793 -0.50816,0.152445 l -0.0203,0.01016 q -0.061,0.03049 -0.13212,0.03049 -0.18294,0 -0.28457,-0.172771 -0.0406,-0.08131 -0.0406,-0.162609 0,-0.172772 0.17277,-0.274402 1.33136,-0.782554 2.08343,-1.869999 0.67076,-0.965488 0.67076,-1.585434 0,-0.457336 -0.5793,-0.457336 -1.13826,0 -2.76434,1.524455 -0.10163,0.09147 -0.23375,0.09147 -0.13212,0 -0.22359,-0.101631 -0.0915,-0.10163 -0.0915,-0.23375 0,-0.121956 0.10163,-0.223586 1.00614,-0.965489 1.99196,-1.402499 0.67076,-0.294729 1.21956,-0.294729 1.00614,0 1.2094,0.833369 0.0203,0.111794 0.0203,0.284566 0,0.589456 -0.40652,1.321194 -0.50815,0.924837 -1.4025,1.758206 l 0.20326,-0.01016 q 0.63011,0 1.22973,0.325217 0.32522,0.193098 0.5488,0.497989 1.58544,-1.37201 2.55092,-3.0794 0.0915,-0.162609 0.28457,-0.162609 0.0813,0 0.16261,0.04065 0.16261,0.10163 0.16261,0.274402 0,0.0813 -0.0407,0.162609 -1.10777,1.930977 -2.81516,3.363965 0.0915,0.264239 0.13212,0.56913 0.0407,0.365869 0.0407,0.843532 0,1.03663 -0.26424,2.388314 -0.37604,1.94114 -1.1281,3.770487 -0.91467,2.103748 -1.92081,2.977769 -0.96549,0.833369 -1.77854,0.833369 z m 0,-0.640271 q 0.53864,-0.03049 1.15859,-0.518315 1.08744,-0.884184 1.94114,-2.906628 0.71141,-1.73788 1.07728,-3.597715 0.26424,-1.321195 0.26424,-2.30701 0,-0.599619 -0.0711,-0.955325 -0.53864,0.43701 -1.07728,0.853695 -1.39234,1.00614 -2.57125,2.235868 -1.16875,1.229727 -1.839511,3.221683 -0.294728,0.955325 -0.315054,1.626086 v 0.193097 q 0,0.538641 0.09147,0.874021 0.325215,1.280543 1.341515,1.280543 z"
         id="path97696" />
      <path
         d="m 108.87951,45.584014 q -0.20326,0 -0.37603,-0.09147 -0.47766,-0.274402 -0.55897,-1.067119 -0.0203,-0.23375 -0.0203,-0.487826 0.0305,-1.544781 0.8232,-3.455432 0.0813,-0.203261 0.3049,-0.203261 0.061,0 0.11179,0.02033 0.21342,0.09147 0.21342,0.304891 0,0.06098 -0.0305,0.121957 -0.77239,1.981792 -0.77239,3.31315 0.0102,0.894347 0.30489,0.894347 0.20326,0 0.76223,-0.4675 0.8537,-0.782554 2.03261,-2.662715 0.10163,-0.152446 0.26424,-0.152446 0.10163,0 0.1931,0.05082 0.15244,0.09147 0.15244,0.274402 0,0.09147 -0.0508,0.172772 -2.16473,3.435106 -3.35381,3.435106 z m 0.47767,-5.457551 q -0.0508,0 -0.0915,-0.02033 -0.23375,-0.07114 -0.23375,-0.315054 0,-0.132119 0.14228,-0.365869 l 0.0406,-0.0813 q 0.10163,-0.182935 0.29473,-0.182935 0.0711,0 0.15245,0.04065 0.17277,0.10163 0.17277,0.294728 0,0.07114 -0.0305,0.13212 -0.0305,0.06098 -0.13212,0.284565 -0.10163,0.213423 -0.31505,0.213423 z"
         id="path97698" />
      <path
         d="m 115.85136,45.360427 q -0.35571,-0.01016 -0.64027,-0.294728 -0.59962,-0.67076 -0.59962,-2.134237 v -0.23375 l -0.35571,0.589456 q -0.99598,1.524455 -1.50413,1.859836 -0.30489,0.20326 -0.52848,0.20326 -0.33538,0 -0.61994,-0.426847 -0.26424,-0.386196 -0.26424,-1.229728 0.0102,-0.77239 0.26424,-1.595596 0.32522,-1.056956 0.83337,-1.524456 0.10163,-0.07114 0.23375,-0.06098 0.13212,0 0.21342,0.10163 0.0813,0.101631 0.0813,0.213424 0,0.152445 -0.11179,0.254076 -0.3557,0.325217 -0.63011,1.229727 -0.23375,0.752065 -0.23375,1.453315 0,0.741901 0.25408,0.924836 0.39636,-0.10163 1.4025,-1.656575 0.91467,-1.453314 1.28054,-2.307009 l 0.0102,-0.03049 q 0.061,-0.213423 0.29473,-0.243912 0.0508,0 0.10163,0.02033 0.24392,0.07114 0.24392,0.294728 0,0.05082 -0.0203,0.10163 -0.29473,1.13826 -0.30489,1.981792 0,0.254076 0.0203,0.4675 0.0915,0.985815 0.40653,1.290706 0.0813,0.09147 0.19309,0.09147 0.0813,0 0.27441,-0.142282 0.43701,-0.325218 0.94516,-1.626086 -0.55897,-0.386196 -0.83337,-1.006141 -0.13212,-0.355706 -0.13212,-0.660597 0,-0.193098 0.061,-0.36587 0.16261,-0.447173 0.48782,-0.701249 0.36587,-0.294728 0.78256,-0.294728 0.60978,0 0.83337,0.640271 0.0406,0.121956 0.0406,0.284565 0,0.33538 -0.18294,0.914673 -0.11179,0.416685 -0.26424,0.863858 0.18294,0.05082 0.36587,0.05082 0.72158,0 1.25006,-0.853695 0.0915,-0.162609 0.2744,-0.162609 0.0915,0 0.17277,0.05082 0.15245,0.10163 0.15245,0.284565 0,0.0813 -0.0407,0.162609 -0.76222,1.168749 -1.74804,1.168749 -0.34554,0 -0.64027,-0.09147 -0.29473,0.792717 -0.69109,1.37201 -0.52847,0.77239 -1.12809,0.77239 z m 1.46347,-3.0794 q 0.10164,-0.325217 0.20327,-0.711412 l 0.0305,-0.111794 q 0.12196,-0.406521 0.13212,-0.630108 0,-0.284565 -0.23375,-0.284565 -0.17277,0 -0.36587,0.162608 -0.0711,0.04065 -0.1626,0.162609 -0.14229,0.182935 -0.14229,0.426848 0,0.518315 0.53864,0.985814 z"
         id="path97700" />
      <path
         d="m 119.97755,45.766949 q -0.18293,0 -0.35571,-0.0813 -0.64027,-0.36587 -0.64027,-1.636249 0.0102,-0.833369 0.30489,-1.717554 0.79272,-2.205379 2.34767,-2.205379 0.73173,0 1.34152,0.548804 l 0.0508,-0.132119 q 0.18294,-0.447174 0.31506,-0.721576 0.0915,-0.193097 0.30489,-0.193097 l 0.0813,0.02033 q 0.25408,0.06098 0.25408,0.304891 0,0.10163 -0.2744,0.934999 -0.32522,1.046793 -0.32522,1.869999 0,0.223587 0.0711,0.813043 0.0711,0.579293 0.52848,0.813043 0.11179,0.06098 0.25407,0.06098 0.36587,0 1.03663,-0.477663 0.67076,-0.487825 1.77853,-2.17489 0.0915,-0.142282 0.25408,-0.142282 0.10163,0 0.1931,0.05082 0.15244,0.09147 0.15244,0.274402 0,0.09147 -0.0508,0.172772 -1.93098,2.947281 -3.29283,2.947281 -0.36587,0 -0.59961,-0.121957 -0.78256,-0.386195 -0.94517,-1.666738 -0.0305,-0.254076 -0.0305,-0.538641 -0.31505,0.630108 -0.69108,1.199238 -1.19924,1.798858 -2.0631,1.798858 z m 0.0102,-0.650434 q 0.47767,0 1.5143,-1.50413 0.71141,-1.128097 1.2094,-2.327335 -0.061,-0.02033 -0.1118,-0.07114 -0.45733,-0.447173 -0.97565,-0.447173 -0.39636,0 -0.69108,0.213423 -0.50816,0.36587 -0.84354,1.097609 -0.45733,1.00614 -0.45733,1.961466 0,0.10163 0.0102,0.193097 0.0508,0.884185 0.34554,0.884185 z"
         id="path97702" />
    </g>
  </g>
</svg>
